<?xml version="1.0" encoding="UTF-8" standalone="no"?>
<!-- Generator: Adobe Illustrator 15.1.0, SVG Export Plug-In . SVG Version: 6.00 Build 0)  -->

<svg
   xmlns:dc="http://purl.org/dc/elements/1.1/"
   xmlns:cc="http://creativecommons.org/ns#"
   xmlns:rdf="http://www.w3.org/1999/02/22-rdf-syntax-ns#"
   xmlns:svg="http://www.w3.org/2000/svg"
   xmlns="http://www.w3.org/2000/svg"
   xmlns:xlink="http://www.w3.org/1999/xlink"
   xmlns:sodipodi="http://sodipodi.sourceforge.net/DTD/sodipodi-0.dtd"
   xmlns:inkscape="http://www.inkscape.org/namespaces/inkscape"
   version="1.1"
   id="Layer_1"
   x="0px"
   y="0px"
   width="620"
   height="250.00294"
   viewBox="0 0 620 250.00294"
   enable-background="new 0 0 620 250"
   xml:space="preserve"
   inkscape:version="0.48.2 r9819"
   sodipodi:docname="Register-03.svg"><metadata
   id="metadata289"><rdf:RDF><cc:Work
       rdf:about=""><dc:format>image/svg+xml</dc:format><dc:type
         rdf:resource="http://purl.org/dc/dcmitype/StillImage" /></cc:Work></rdf:RDF></metadata><defs
   id="defs287" /><sodipodi:namedview
   pagecolor="#ffffff"
   bordercolor="#666666"
   borderopacity="1"
   objecttolerance="10"
   gridtolerance="10"
   guidetolerance="10"
   inkscape:pageopacity="0"
   inkscape:pageshadow="2"
   inkscape:window-width="1048"
   inkscape:window-height="631"
   id="namedview285"
   showgrid="false"
   inkscape:zoom="1"
   inkscape:cx="252.02105"
   inkscape:cy="212.10183"
   inkscape:window-x="0"
   inkscape:window-y="0"
   inkscape:window-maximized="0"
   inkscape:current-layer="Layer_1"
   showborder="true"
   borderlayer="true"
   inkscape:showpageshadow="true"
   fit-margin-top="0"
   fit-margin-left="0"
   fit-margin-right="0"
   fit-margin-bottom="0" />
<g
   id="g3"
   transform="translate(1336.693,0.0029375)">
	<defs
   id="defs5">
		<rect
   id="SVGID_1_"
   x="-1336.693"
   width="620"
   height="250"
   y="0" />
	</defs>
	<clipPath
   id="SVGID_2_">
		<use
   xlink:href="#SVGID_1_"
   overflow="visible"
   id="use9"
   style="overflow:visible"
   x="0"
   y="0"
   width="620"
   height="250" />
	</clipPath>
	<g
   clip-path="url(#SVGID_2_)"
   id="g11">
		<polygon
   points="-1668.459,800.128 -1238.479,44.743 -571.264,114.28 -716.436,261.743 -1187.333,266.367 "
   id="polygon13"
   style="fill:#23a749" />
		<g
   id="g15">
			<polygon
   points="-1625.519,240.181 -1625.519,240.181 -1627.917,479.674 -1238.479,44.743 "
   id="polygon17"
   style="fill:#84c06f"
   transform="translate(0.70710678,-0.70710678)" />
			<polygon
   points="-1909.84,840.833 -1668.459,800.128 -1627.917,479.674 "
   id="polygon19"
   style="fill:#84c06f" />
			<polygon
   points="-571.264,114.28 -611.805,-199.308 -1286.603,-195.694 "
   id="polygon21"
   style="fill:#84c06f"
   transform="translate(-30,23.5)" />
			<polygon
   points="-571.264,114.28 -1286.603,-195.694 -1238.479,44.743 "
   id="polygon23"
   style="fill:#27ab68" />
			<polygon
   points="-1625.519,240.181 -1238.479,44.743 -1286.603,-195.694 "
   id="polygon25"
   style="fill:#23a749"
   transform="translate(0.76256313,-0.35355338)" />
			<polygon
   points="-571.264,114.28 -1238.479,44.743 -1187.333,266.367 "
   id="polygon27"
   style="fill:#009044"
   transform="matrix(1,0,0,1.0045121,0,-1.201887)" />
			<polygon
   points="-1555.833,617.633 -1238.479,44.743 -1627.917,479.674 -1668.459,800.128 "
   id="polygon29"
   style="fill:#43b06c" />
			<polygon
   points="-1627.917,479.674 -1908.417,604.254 -1909.84,840.833 "
   id="polygon31"
   style="fill:#23a749" />
			<polygon
   points="-1625.519,240.181 -1908.417,604.254 -1625.519,240.181 "
   id="polygon33"
   style="fill:#addce9" />
			<polygon
   points="-1625.519,240.181 -1908.417,604.254 -1627.917,479.674 "
   id="polygon35"
   style="fill:#43b06c" />
		</g>
	</g>
</g>
<g
   id="g37"
   transform="translate(1336.693,0.0029375)">
	<g
   id="g39">
		<path
   d="m -777.384,233.346 c 0,1.013 -0.487,1.521 -1.469,1.521 -0.1,0 -0.29,-0.017 -0.565,-0.05 v 2.803 h 1.569 c 2.18,0 3.269,-1.606 3.269,-4.813 v -13.359 h -2.804 v 13.898 z"
   id="path41"
   inkscape:connector-curvature="0"
   style="fill:#ffffff" />
		<path
   d="m -745.773,224.933 v -1.213 c 0,-1.382 -0.351,-2.493 -1.057,-3.332 -0.755,-0.887 -1.81,-1.332 -3.166,-1.332 -1.399,0 -2.487,0.421 -3.268,1.259 -0.357,0.381 -0.628,0.834 -0.816,1.354 l 0.346,-2.222 h -2.652 l -1.155,10.407 c -0.051,0.476 -0.117,1.49 -0.201,3.041 -0.016,0.318 -0.026,0.492 -0.026,0.526 0,-1.239 -0.062,-2.312 -0.187,-3.217 l -1.498,-10.758 h -2.385 l -1.396,10.407 c -0.042,0.309 -0.101,1.167 -0.176,2.575 -0.032,0.544 -0.049,0.875 -0.049,0.992 v -0.352 c 0,-0.888 -0.062,-1.839 -0.178,-2.853 l -1.244,-10.771 h -1.639 -1.038 -6.264 v 18.173 h 7.302 v -2.728 h -4.498 v -5.429 h 3.242 v -2.626 h -3.242 v -4.765 h 3.874 l 2.448,15.547 h 2.334 l 1.495,-10.207 c 0.134,-1.574 0.21,-2.763 0.226,-3.567 0,1.291 0.064,2.368 0.188,3.229 l 1.536,10.545 h 2.352 l 2.171,-13.929 v 9.266 c 0,3.368 1.431,5.052 4.296,5.052 1.458,0 2.561,-0.474 3.306,-1.42 0.679,-0.863 1.019,-2.048 1.019,-3.557 v -1.363 h -2.877 v 1.941 c 0,1.264 -0.483,1.897 -1.447,1.897 -0.963,0 -1.444,-0.634 -1.444,-1.897 v -10.14 c 0,-1.26 0.481,-1.887 1.444,-1.887 0.964,0 1.447,0.627 1.447,1.887 v 1.463 h 2.877 z"
   id="path43"
   inkscape:connector-curvature="0"
   style="fill:#ffffff" />
	</g>
	<g
   id="g45">
		<path
   d="m -741.774,232.446 c 0,-0.428 -0.107,-0.778 -0.325,-1.047 -0.231,-0.29 -0.559,-0.435 -0.976,-0.435 -0.499,0 -0.875,0.182 -1.125,0.547 -0.214,0.313 -0.32,0.732 -0.32,1.256 v 0.115 h 0.929 v -0.23 c 0.011,-0.306 0.047,-0.518 0.112,-0.638 0.078,-0.144 0.209,-0.218 0.39,-0.218 0.288,0 0.432,0.248 0.432,0.743 0,0.77 -0.648,2.047 -1.942,3.831 v 0.894 h 2.749 v -0.894 h -1.725 c 0.566,-0.852 0.953,-1.47 1.162,-1.858 0.427,-0.807 0.639,-1.497 0.639,-2.066 z"
   id="path47"
   inkscape:connector-curvature="0"
   style="fill:#ffffff" />
		<path
   d="m -739.002,231.765 c -0.056,-0.127 -0.125,-0.245 -0.209,-0.348 -0.251,-0.309 -0.6,-0.462 -1.054,-0.462 -0.467,0 -0.826,0.146 -1.081,0.436 -0.241,0.276 -0.361,0.65 -0.361,1.124 v 3.163 c 0,1.146 0.472,1.718 1.419,1.718 0.485,0 0.85,-0.164 1.095,-0.495 0.22,-0.293 0.329,-0.691 0.329,-1.196 v -3.165 c 0,-0.022 0,-0.045 -0.002,-0.067 h 0.405 v 4.792 h 0.943 v -6.175 h -0.636 c -0.191,0.285 -0.475,0.511 -0.848,0.675 z m -0.793,4.179 c 0,0.385 -0.16,0.576 -0.479,0.576 -0.339,0 -0.507,-0.191 -0.507,-0.576 v -3.62 c 0,-0.144 0.046,-0.26 0.138,-0.349 0.093,-0.09 0.21,-0.135 0.354,-0.135 0.146,0 0.265,0.045 0.356,0.135 0.091,0.089 0.137,0.208 0.137,0.356 v 3.613 z"
   id="path49"
   inkscape:connector-curvature="0"
   style="fill:#ffffff" />
		<path
   d="m -735.115,234.512 c 0.429,-0.808 0.642,-1.497 0.642,-2.066 0,-0.428 -0.109,-0.778 -0.326,-1.047 -0.233,-0.29 -0.559,-0.435 -0.976,-0.435 -0.499,0 -0.874,0.182 -1.124,0.547 -0.215,0.313 -0.32,0.732 -0.32,1.256 v 0.115 h 0.927 v -0.23 c 0.011,-0.306 0.049,-0.518 0.111,-0.638 0.081,-0.144 0.211,-0.218 0.392,-0.218 0.287,0 0.432,0.248 0.432,0.743 0,0.77 -0.648,2.047 -1.943,3.831 v 0.894 h 2.75 v -0.894 h -1.725 c 0.564,-0.851 0.952,-1.469 1.16,-1.858 z"
   id="path51"
   inkscape:connector-curvature="0"
   style="fill:#ffffff" />
	</g>
</g>
<circle
   stroke-miterlimit="10"
   cx="-736.78101"
   cy="45.783001"
   r="4.3979998"
   id="circle53"
   sodipodi:cx="-736.78101"
   sodipodi:cy="45.783001"
   sodipodi:rx="4.3979998"
   sodipodi:ry="4.3979998"
   style="fill:none;stroke:#23a749;stroke-miterlimit:10"
   transform="translate(1336.693,0.0029375)" />
<circle
   stroke-miterlimit="10"
   cx="-741.617"
   cy="57.188999"
   r="2.198"
   id="circle55"
   sodipodi:cx="-741.617"
   sodipodi:cy="57.188999"
   sodipodi:rx="2.198"
   sodipodi:ry="2.198"
   style="fill:none;stroke:#f59d08;stroke-miterlimit:10"
   transform="translate(1336.693,0.0029375)" />
<circle
   stroke-miterlimit="10"
   cx="-733.78101"
   cy="58.016998"
   r="1.399"
   id="circle57"
   sodipodi:cx="-733.78101"
   sodipodi:cy="58.016998"
   sodipodi:rx="1.399"
   sodipodi:ry="1.399"
   style="fill:none;stroke:#f59d08;stroke-miterlimit:10"
   transform="translate(1336.693,0.0029375)" />
<circle
   stroke-miterlimit="10"
   cx="-746.80298"
   cy="51.244999"
   r="0.99900001"
   id="circle59"
   sodipodi:cx="-746.80298"
   sodipodi:cy="51.244999"
   sodipodi:rx="0.99900001"
   sodipodi:ry="0.99900001"
   style="fill:none;stroke:#f59d08;stroke-miterlimit:10"
   transform="translate(1336.693,0.0029375)" />
<rect
   x="589.84302"
   y="61.172935"
   stroke-miterlimit="10"
   width="0"
   height="0"
   id="rect61"
   style="fill:none;stroke:#f59d08;stroke-miterlimit:10" />
<path
   d="m 611.13999,48.063938 c -5.1e-4,6.268999 -3.421,11.350999 -7.64,11.350999 l -43.839,0 c -4.219,0 -7.64,-5.082 -7.64,-11.350999 L 552.02499,0 l 59.119,0 z"
   id="path63"
   inkscape:connector-curvature="0"
   style="fill:#2d2d2c"
   sodipodi:nodetypes="ssssccs" />
<text
   id="text65"
   x="559.78772"
   y="25.617638"><tspan
     x="559.78772"
     y="25.617638"
     font-size="12.1921"
     id="tspan67"
     style="font-size:12.19209957px;fill:#ffffff;font-family:Cafeta">THE BIGGEST</tspan><tspan
     x="559.78772"
     y="35.917637"
     font-size="11.129"
     id="tspan69"
     style="font-size:11.12899971px;fill:#ffffff;font-family:Cafeta">EVENT OF THE</tspan><tspan
     x="559.78772"
     y="53.677635"
     font-size="21.5477"
     id="tspan71"
     style="font-size:21.54770088px;fill:#ffffff;font-family:Cafeta">WORLD</tspan></text>

<text
   font-size="68.548"
   letter-spacing="-1"
   id="text73"
   style="font-size:68.54799652px;letter-spacing:-1;fill:#ffffff;font-family:Cafeta"
   x="53.259392"
   y="102.95804">REGISTER</text>

<text
   font-size="138.5942"
   letter-spacing="-3"
   id="text75"
   style="font-size:138.5941925px;letter-spacing:-3;fill:#ffffff;font-family:Cafeta"
   x="49.158794"
   y="206.10794">NOW</text>

<text
   id="text77"
   x="312.75159"
   y="64.617638"><tspan
     x="312.75159"
     y="64.617638"
     font-size="14"
     id="tspan79"
     style="font-size:14px;fill:#ffffff;font-family:GauntletClassic">Click here and register</tspan><tspan
     x="312.75159"
     y="81.417633"
     font-size="14"
     id="tspan81"
     style="font-size:14px;fill:#ffffff;font-family:GauntletClassic">for the world’s biggest</tspan><tspan
     x="312.75159"
     y="98.217636"
     font-size="14"
     id="tspan83"
     style="font-size:14px;fill:#ffffff;font-family:GauntletClassic">event. It’s easy, simple</tspan><tspan
     x="312.75159"
     y="115.01764"
     font-size="14"
     id="tspan85"
     style="font-size:14px;fill:#ffffff;font-family:GauntletClassic">and pretty fast.</tspan><tspan
     x="312.75159"
     y="148.61763"
     font-size="14"
     id="tspan87"
     style="font-size:14px;fill:#ffffff;font-family:GauntletClassic">Don’t forget to tell your</tspan><tspan
     x="312.75159"
     y="165.41763"
     font-size="14"
     id="tspan89"
     style="font-size:14px;fill:#ffffff;font-family:GauntletClassic">friends that registrations</tspan><tspan
     x="312.75159"
     y="182.21764"
     font-size="14"
     id="tspan91"
     style="font-size:14px;fill:#ffffff;font-family:GauntletClassic">are open!</tspan></text>

<text
   font-size="10"
   id="text93"
   style="font-size:10px;fill:#ffffff;font-family:GauntletClassic"
   x="312.75159"
   y="205.44974">*For non brazilians only.</text>







<rect
   x="1258.1899"
   y="61.172935"
   stroke-miterlimit="10"
   width="0"
   height="0"
   id="rect165"
   style="fill:none;stroke:#f59d08;stroke-miterlimit:10" />












<rect
   x="1926.537"
   y="61.172935"
   stroke-miterlimit="10"
   width="0"
   height="0"
   id="rect253"
   style="fill:none;stroke:#f59d08;stroke-miterlimit:10" />






</svg>