<?xml version="1.0" encoding="UTF-8" standalone="no"?>
<!-- Generator: Adobe Illustrator 15.1.0, SVG Export Plug-In . SVG Version: 6.00 Build 0)  -->

<svg
   xmlns:dc="http://purl.org/dc/elements/1.1/"
   xmlns:cc="http://creativecommons.org/ns#"
   xmlns:rdf="http://www.w3.org/1999/02/22-rdf-syntax-ns#"
   xmlns:svg="http://www.w3.org/2000/svg"
   xmlns="http://www.w3.org/2000/svg"
   xmlns:xlink="http://www.w3.org/1999/xlink"
   xmlns:sodipodi="http://sodipodi.sourceforge.net/DTD/sodipodi-0.dtd"
   xmlns:inkscape="http://www.inkscape.org/namespaces/inkscape"
   version="1.1"
   id="Layer_1"
   x="0px"
   y="0px"
   width="620px"
   height="250px"
   viewBox="0 0 620 250"
   enable-background="new 0 0 620 250"
   xml:space="preserve"
   inkscape:version="0.48.2 r9819"
   sodipodi:docname="Register-01.svg"><metadata
   id="metadata289"><rdf:RDF><cc:Work
       rdf:about=""><dc:format>image/svg+xml</dc:format><dc:type
         rdf:resource="http://purl.org/dc/dcmitype/StillImage" /><dc:title /></cc:Work></rdf:RDF></metadata><defs
   id="defs287" /><sodipodi:namedview
   pagecolor="#ffffff"
   bordercolor="#666666"
   borderopacity="1"
   objecttolerance="10"
   gridtolerance="10"
   guidetolerance="10"
   inkscape:pageopacity="0"
   inkscape:pageshadow="2"
   inkscape:window-width="1048"
   inkscape:window-height="631"
   id="namedview285"
   showgrid="false"
   inkscape:zoom="0.70710678"
   inkscape:cx="196.35109"
   inkscape:cy="66.953433"
   inkscape:window-x="0"
   inkscape:window-y="0"
   inkscape:window-maximized="0"
   inkscape:current-layer="Layer_1" />






<rect
   x="-746.85"
   y="61.17"
   fill="none"
   stroke="#F59D08"
   stroke-miterlimit="10"
   width="0"
   height="0"
   id="rect61" />












<rect
   x="-78.503"
   y="61.17"
   fill="none"
   stroke="#F59D08"
   stroke-miterlimit="10"
   width="0"
   height="0"
   id="rect165" />






<g
   id="g197">
	<defs
   id="defs199">
		<rect
   id="SVGID_5_"
   width="620"
   height="250" />
	</defs>
	<clipPath
   id="SVGID_6_">
		<use
   xlink:href="#SVGID_5_"
   overflow="visible"
   id="use203" />
	</clipPath>
	<g
   clip-path="url(#SVGID_6_)"
   id="g205">
		<polygon
   points="1128.43,-684.565 873.675,-964.856 958.33,331.91   "
   id="polygon207"
   fill="#D57175" />
		<polygon
   points="602.556,126.119 47.794,110.286 315.436,331.651   "
   id="polygon209"
   fill="#D57175" />
		<polygon
   points="-199.482,-173.938 -355.594,111.126 47.794,110.286   "
   id="polygon211"
   fill="#D47175" />
		<polygon
   points="-199.482,-173.938 47.794,110.286 602.556,126.119 "
   id="polygon213"
   transform="matrix(1.0280536,0,0,1.038326,-1.403825,-3.3336433)"
   style="fill:#ce3558" />
		
		<polygon
   points="958.33,331.91 602.556,126.119 315.436,331.651 "
   id="polygon217"
   transform="translate(-1,0)"
   style="fill:#d1535b" />
		<polygon
   points="633.005,-967.025 434.737,-154.732 873.675,-964.856   "
   id="polygon219"
   fill="#BA4865" />
		<polygon
   points="-199.482,-173.938 602.556,126.119 434.737,-154.732 "
   id="polygon221"
   transform="translate(2.125,1.09375)"
   style="fill:#b72756" />
		<polygon
   points="873.675,-964.856 434.737,-154.732 602.556,126.119   "
   id="polygon223"
   fill="#AB2158" />
		<polygon
   points="-155.241,331.421 47.794,110.286 -355.594,111.126 "
   id="polygon225"
   transform="matrix(1.002479,0,0,1.0022611,0.88151856,-0.74936351)"
   style="fill:#cf434c" />
		<polygon
   points="315.436,331.651 47.794,110.286 -155.241,331.421 "
   id="polygon227"
   transform="translate(0.35355339,-0.53033012)"
   style="fill:#b7353f" />
	<polygon
   points="602.556,126.119 958.33,331.91 873.675,-964.856 "
   id="polygon215"
   transform="translate(-1,1.5)"
   style="fill:#d03f5b" /></g>
</g>
<g
   id="g229">
	<g
   id="g231">
		<path
   fill="#FFFFFF"
   d="M559.31,233.346c0,1.013-0.487,1.521-1.469,1.521c-0.1,0-0.29-0.017-0.565-0.05v2.803h1.569    c2.18,0,3.269-1.606,3.269-4.813v-13.359h-2.804V233.346z"
   id="path233" />
		<path
   fill="#FFFFFF"
   d="M590.92,224.933v-1.213c0-1.382-0.351-2.493-1.057-3.332c-0.755-0.887-1.81-1.332-3.166-1.332    c-1.399,0-2.487,0.421-3.268,1.259c-0.357,0.381-0.628,0.834-0.816,1.354l0.346-2.222h-2.652l-1.155,10.407    c-0.051,0.476-0.117,1.49-0.201,3.041c-0.016,0.318-0.026,0.492-0.026,0.526c0-1.239-0.062-2.312-0.187-3.217l-1.498-10.758    h-2.385l-1.396,10.407c-0.042,0.309-0.101,1.167-0.176,2.575c-0.032,0.544-0.049,0.875-0.049,0.992v-0.352    c0-0.888-0.062-1.839-0.178-2.853l-1.244-10.771h-1.639h-1.038h-6.264v18.173h7.302v-2.728h-4.498v-5.429h3.242v-2.626h-3.242    v-4.765h3.874l2.448,15.547h2.334l1.495-10.207c0.134-1.574,0.21-2.763,0.226-3.567c0,1.291,0.064,2.368,0.188,3.229l1.536,10.545    h2.352l2.171-13.929v9.266c0,3.368,1.431,5.052,4.296,5.052c1.458,0,2.561-0.474,3.306-1.42c0.679-0.863,1.019-2.048,1.019-3.557    v-1.363h-2.877v1.941c0,1.264-0.483,1.897-1.447,1.897c-0.963,0-1.444-0.634-1.444-1.897v-10.14c0-1.26,0.481-1.887,1.444-1.887    c0.964,0,1.447,0.627,1.447,1.887v1.463H590.92z"
   id="path235" />
	</g>
	<g
   id="g237">
		<path
   fill="#FFFFFF"
   d="M594.919,232.446c0-0.428-0.107-0.778-0.325-1.047c-0.231-0.29-0.559-0.435-0.976-0.435    c-0.499,0-0.875,0.182-1.125,0.547c-0.214,0.313-0.32,0.732-0.32,1.256v0.115h0.929v-0.23c0.011-0.306,0.047-0.518,0.112-0.638    c0.078-0.144,0.209-0.218,0.39-0.218c0.288,0,0.432,0.248,0.432,0.743c0,0.77-0.648,2.047-1.942,3.831v0.894h2.749v-0.894h-1.725    c0.566-0.852,0.953-1.47,1.162-1.858C594.707,233.705,594.919,233.015,594.919,232.446z"
   id="path239" />
		<path
   fill="#FFFFFF"
   d="M597.691,231.765c-0.056-0.127-0.125-0.245-0.209-0.348c-0.251-0.309-0.6-0.462-1.054-0.462    c-0.467,0-0.826,0.146-1.081,0.436c-0.241,0.276-0.361,0.65-0.361,1.124v3.163c0,1.146,0.472,1.718,1.419,1.718    c0.485,0,0.85-0.164,1.095-0.495c0.22-0.293,0.329-0.691,0.329-1.196v-3.165c0-0.022,0-0.045-0.002-0.067h0.405v4.792h0.943    v-6.175h-0.636C598.349,231.375,598.064,231.601,597.691,231.765z M596.898,235.944c0,0.385-0.16,0.576-0.479,0.576    c-0.339,0-0.507-0.191-0.507-0.576v-3.62c0-0.144,0.046-0.26,0.138-0.349c0.093-0.09,0.21-0.135,0.354-0.135    c0.146,0,0.265,0.045,0.356,0.135c0.091,0.089,0.137,0.208,0.137,0.356V235.944z"
   id="path241" />
		<path
   fill="#FFFFFF"
   d="M601.578,234.512c0.429-0.808,0.642-1.497,0.642-2.066c0-0.428-0.109-0.778-0.326-1.047    c-0.233-0.29-0.559-0.435-0.976-0.435c-0.499,0-0.874,0.182-1.124,0.547c-0.215,0.313-0.32,0.732-0.32,1.256v0.115h0.927v-0.23    c0.011-0.306,0.049-0.518,0.111-0.638c0.081-0.144,0.211-0.218,0.392-0.218c0.287,0,0.432,0.248,0.432,0.743    c0,0.77-0.648,2.047-1.943,3.831v0.894h2.75v-0.894h-1.725C600.982,235.519,601.37,234.901,601.578,234.512z"
   id="path243" />
	</g>
</g>
<circle
   fill="none"
   stroke="#23A749"
   stroke-miterlimit="10"
   cx="599.913"
   cy="45.783"
   r="4.398"
   id="circle245" />
<circle
   fill="none"
   stroke="#F59D08"
   stroke-miterlimit="10"
   cx="595.077"
   cy="57.189"
   r="2.198"
   id="circle247" />
<circle
   fill="none"
   stroke="#F59D08"
   stroke-miterlimit="10"
   cx="602.912"
   cy="58.017"
   r="1.399"
   id="circle249" />
<circle
   fill="none"
   stroke="#F59D08"
   stroke-miterlimit="10"
   cx="589.89"
   cy="51.245"
   r="0.999"
   id="circle251" />
<rect
   x="589.844"
   y="61.17"
   fill="none"
   stroke="#F59D08"
   stroke-miterlimit="10"
   width="0"
   height="0"
   id="rect253" />
<path
   d="m 611.141,48.061 c -5.1e-4,6.269 -3.421,11.351 -7.64,11.351 l -43.839,0 c -4.219,0 -7.64,-5.082 -7.64,-11.351 l 0.004,-48.06003125 59.119,0 z"
   id="path255"
   inkscape:connector-curvature="0"
   style="fill:#2d2d2c"
   sodipodi:nodetypes="ssssccs" />
<text
   transform="matrix(1 0 0 1 559.7871 25.6147)"
   id="text257"><tspan
     x="0"
     y="0"
     fill="#FFFFFF"
     font-family="'Cafeta'"
     font-size="12.1921"
     id="tspan259">THE BIGGEST</tspan><tspan
     x="0"
     y="10.3"
     fill="#FFFFFF"
     font-family="'Cafeta'"
     font-size="11.129"
     id="tspan261">EVENT OF THE</tspan><tspan
     x="0"
     y="28.06"
     fill="#FFFFFF"
     font-family="'Cafeta'"
     font-size="21.5477"
     id="tspan263">WORLD</tspan></text>


<text
   transform="matrix(1 0 0 1 53.2598 102.9551)"
   fill="#FFFFFF"
   font-family="'Cafeta'"
   font-size="68.548"
   letter-spacing="-1"
   id="text265">REGISTER</text>


<text
   transform="matrix(1 0 0 1 49.1582 206.105)"
   fill="#FFFFFF"
   font-family="'Cafeta'"
   font-size="138.5942"
   letter-spacing="-3"
   id="text267">NOW</text>


<text
   transform="matrix(1 0 0 1 312.751 64.6147)"
   id="text269"><tspan
     x="0"
     y="0"
     fill="#FFFFFF"
     font-family="'GauntletClassic'"
     font-size="14"
     id="tspan271">Click here and register</tspan><tspan
     x="0"
     y="16.8"
     fill="#FFFFFF"
     font-family="'GauntletClassic'"
     font-size="14"
     id="tspan273">for the world’s biggest</tspan><tspan
     x="0"
     y="33.6"
     fill="#FFFFFF"
     font-family="'GauntletClassic'"
     font-size="14"
     id="tspan275">event. It’s easy, simple</tspan><tspan
     x="0"
     y="50.4"
     fill="#FFFFFF"
     font-family="'GauntletClassic'"
     font-size="14"
     id="tspan277">and pretty fast.</tspan><tspan
     x="0"
     y="84"
     fill="#FFFFFF"
     font-family="'GauntletClassic'"
     font-size="14"
     id="tspan279">What are you waiting for?</tspan><tspan
     x="0"
     y="100.8"
     fill="#FFFFFF"
     font-family="'GauntletClassic'"
     font-size="14"
     id="tspan281">This is gonna be epic!</tspan></text>


<text
   transform="matrix(1 0 0 1 312.751 205.4468)"
   fill="#FFFFFF"
   font-family="'GauntletClassic'"
   font-size="10"
   id="text283">*For non brazilians only.</text>


</svg>