<?xml version="1.0" encoding="UTF-8" standalone="no"?>
<!-- Generator: Adobe Illustrator 15.1.0, SVG Export Plug-In . SVG Version: 6.00 Build 0)  -->

<svg
   xmlns:dc="http://purl.org/dc/elements/1.1/"
   xmlns:cc="http://creativecommons.org/ns#"
   xmlns:rdf="http://www.w3.org/1999/02/22-rdf-syntax-ns#"
   xmlns:svg="http://www.w3.org/2000/svg"
   xmlns="http://www.w3.org/2000/svg"
   xmlns:xlink="http://www.w3.org/1999/xlink"
   xmlns:sodipodi="http://sodipodi.sourceforge.net/DTD/sodipodi-0.dtd"
   xmlns:inkscape="http://www.inkscape.org/namespaces/inkscape"
   version="1.1"
   id="Layer_1"
   x="0px"
   y="0px"
   width="620"
   height="250"
   viewBox="0 0 619.99997 250.00001"
   enable-background="new 0 0 620 250"
   xml:space="preserve"
   inkscape:version="0.48.2 r9819"
   sodipodi:docname="Register-02.svg"><metadata
   id="metadata289"><rdf:RDF><cc:Work
       rdf:about=""><dc:format>image/svg+xml</dc:format><dc:type
         rdf:resource="http://purl.org/dc/dcmitype/StillImage" /><dc:title /></cc:Work></rdf:RDF></metadata><defs
   id="defs287" /><sodipodi:namedview
   pagecolor="#ffffff"
   bordercolor="#666666"
   borderopacity="1"
   objecttolerance="10"
   gridtolerance="10"
   guidetolerance="10"
   inkscape:pageopacity="0"
   inkscape:pageshadow="2"
   inkscape:window-width="1048"
   inkscape:window-height="631"
   id="namedview285"
   showgrid="false"
   inkscape:zoom="1"
   inkscape:cx="349.31341"
   inkscape:cy="112.98938"
   inkscape:window-x="0"
   inkscape:window-y="0"
   inkscape:window-maximized="0"
   inkscape:current-layer="Layer_1"
   showborder="true"
   borderlayer="true"
   inkscape:showpageshadow="true"
   fit-margin-top="0"
   fit-margin-left="0"
   fit-margin-right="0"
   fit-margin-bottom="0" />






<rect
   x="-910.50299"
   y="273.16995"
   stroke-miterlimit="10"
   width="0"
   height="0"
   id="rect61"
   style="fill:none;stroke:#f59d08;stroke-width:1;stroke-miterlimit:10" />






<g
   id="g95"
   transform="translate(668.34698,0)">
	<defs
   id="defs97">
		<rect
   id="SVGID_3_"
   x="-668.34698"
   width="620"
   height="250"
   y="0" />
	</defs>
	<clipPath
   id="SVGID_4_">
		<use
   xlink:href="#SVGID_3_"
   overflow="visible"
   id="use101"
   style="overflow:visible"
   x="0"
   y="0"
   width="620"
   height="250" />
	</clipPath>
	<g
   clip-path="url(#SVGID_4_)"
   id="g103">
		<polygon
   points="-890.005,-85.875 -889.022,-87.498 -889.298,-87.746 "
   id="polygon105"
   style="fill:#f5a35a" />
		<polygon
   points="-889.298,-87.746 -889.022,-87.498 -888.804,-87.859 "
   id="polygon107"
   style="fill:#fab200" />
		<polygon
   points="192.128,139.497 -254.241,91.997 -19.88,417.091 "
   id="polygon109"
   style="fill:#fab200" />
		<polygon
   points="-374.466,-124.962 -770.419,97.331 -254.241,91.997 "
   id="polygon111"
   style="fill:#f9b205"
   transform="matrix(2.218572,0,0,3.402235,682.81097,15.188081)" />
		<polygon
   points="-1308.391,1014.648 -890.005,-85.875 -1350.866,664.591 "
   id="polygon113"
   style="fill:#f9b205" />
		<polygon
   points="-888.804,-87.859 -374.466,-124.962 14.835,-153.014 -888.804,-87.859 "
   id="polygon115"
   style="fill:#fab200" />
		<polygon
   points="-19.88,417.091 -254.241,91.997 -770.419,97.331 "
   id="polygon117"
   style="fill:#f59d08" />
		<polygon
   points="-1308.391,1014.648 -770.419,97.331 -889.022,-87.498 -890.005,-85.875 "
   id="polygon119"
   style="fill:#ef7807" />
		<polygon
   points="-888.804,-87.859 -889.022,-87.498 -770.419,97.331 -374.466,-124.962 "
   id="polygon121"
   style="fill:#f18504" />
		<polygon
   points="-735.382,414.575 -1308.391,1014.648 -1085.771,997.647 "
   id="polygon123"
   style="fill:#f39003" />
		<polygon
   points="-735.382,414.575 -19.88,417.091 -770.419,97.331 "
   id="polygon125"
   style="fill:#fab200" />
		<polygon
   points="-735.382,414.575 -19.88,417.091 -770.419,97.331 "
   id="polygon127"
   style="fill:#f08006" />
		<polygon
   points="-735.382,414.575 -770.419,97.331 -1308.391,1014.648 "
   id="polygon129"
   style="fill:#fab200" />
		<polygon
   points="-735.382,414.575 -770.419,97.331 -1308.391,1014.648 "
   id="polygon131"
   style="fill:#ea600b" />
		<polygon
   points="14.835,-153.014 -254.241,91.997 192.128,139.497 "
   id="polygon133"
   style="fill:#f18504" />
		<polygon
   points="14.835,-153.014 -374.466,-124.962 -254.241,91.997 "
   id="polygon135"
   style="fill:#f59e07" />
		<polygon
   points="-472.213,-194.857 -472.213,-194.857 -472.213,-194.857 "
   id="polygon137"
   style="fill:none" />
		<path
   d="M -812.587,-454.929"
   id="path139"
   inkscape:connector-curvature="0"
   style="fill:#fdc204" />
	</g>
</g>
<g
   id="g141"
   transform="translate(668.34698,0)">
	<g
   id="g143">
		<path
   d="m -109.037,233.346 c 0,1.013 -0.487,1.521 -1.469,1.521 -0.1,0 -0.29,-0.017 -0.565,-0.05 v 2.803 h 1.569 c 2.18,0 3.269,-1.606 3.269,-4.813 v -13.359 h -2.804 v 13.898 z"
   id="path145"
   inkscape:connector-curvature="0"
   style="fill:#ffffff" />
		<path
   d="m -77.427,224.933 v -1.213 c 0,-1.382 -0.351,-2.493 -1.057,-3.332 -0.755,-0.887 -1.81,-1.332 -3.166,-1.332 -1.399,0 -2.487,0.421 -3.268,1.259 -0.357,0.381 -0.628,0.834 -0.816,1.354 l 0.346,-2.222 h -2.652 l -1.155,10.407 c -0.051,0.476 -0.117,1.49 -0.201,3.041 -0.016,0.318 -0.026,0.492 -0.026,0.526 0,-1.239 -0.062,-2.312 -0.187,-3.217 l -1.498,-10.758 h -2.385 l -1.396,10.407 c -0.042,0.309 -0.101,1.167 -0.176,2.575 -0.032,0.544 -0.049,0.875 -0.049,0.992 v -0.352 c 0,-0.888 -0.062,-1.839 -0.178,-2.853 l -1.244,-10.771 h -1.639 -1.038 -6.264 v 18.173 h 7.302 v -2.728 h -4.498 v -5.429 h 3.242 v -2.626 h -3.242 v -4.765 h 3.874 l 2.448,15.547 h 2.334 l 1.495,-10.207 c 0.134,-1.574 0.21,-2.763 0.226,-3.567 0,1.291 0.064,2.368 0.188,3.229 l 1.536,10.545 h 2.352 l 2.171,-13.929 v 9.266 c 0,3.368 1.431,5.052 4.296,5.052 1.458,0 2.561,-0.474 3.306,-1.42 0.679,-0.863 1.019,-2.048 1.019,-3.557 v -1.363 h -2.877 v 1.941 c 0,1.264 -0.483,1.897 -1.447,1.897 -0.963,0 -1.444,-0.634 -1.444,-1.897 v -10.14 c 0,-1.26 0.481,-1.887 1.444,-1.887 0.964,0 1.447,0.627 1.447,1.887 v 1.463 h 2.877 z"
   id="path147"
   inkscape:connector-curvature="0"
   style="fill:#ffffff" />
	</g>
	<g
   id="g149">
		<path
   d="m -73.428,232.446 c 0,-0.428 -0.107,-0.778 -0.325,-1.047 -0.231,-0.29 -0.559,-0.435 -0.976,-0.435 -0.499,0 -0.875,0.182 -1.125,0.547 -0.214,0.313 -0.32,0.732 -0.32,1.256 v 0.115 h 0.929 v -0.23 c 0.011,-0.306 0.047,-0.518 0.112,-0.638 0.078,-0.144 0.209,-0.218 0.39,-0.218 0.288,0 0.432,0.248 0.432,0.743 0,0.77 -0.648,2.047 -1.942,3.831 v 0.894 h 2.749 v -0.894 h -1.725 c 0.566,-0.852 0.953,-1.47 1.162,-1.858 0.427,-0.807 0.639,-1.497 0.639,-2.066 z"
   id="path151"
   inkscape:connector-curvature="0"
   style="fill:#ffffff" />
		<path
   d="m -70.655,231.765 c -0.056,-0.127 -0.125,-0.245 -0.209,-0.348 -0.251,-0.309 -0.6,-0.462 -1.054,-0.462 -0.467,0 -0.826,0.146 -1.081,0.436 -0.241,0.276 -0.361,0.65 -0.361,1.124 v 3.163 c 0,1.146 0.472,1.718 1.419,1.718 0.485,0 0.85,-0.164 1.095,-0.495 0.22,-0.293 0.329,-0.691 0.329,-1.196 v -3.165 c 0,-0.022 0,-0.045 -0.002,-0.067 h 0.405 v 4.792 h 0.943 v -6.175 h -0.636 c -0.191,0.285 -0.475,0.511 -0.848,0.675 z m -0.793,4.179 c 0,0.385 -0.16,0.576 -0.479,0.576 -0.339,0 -0.507,-0.191 -0.507,-0.576 v -3.62 c 0,-0.144 0.046,-0.26 0.138,-0.349 0.093,-0.09 0.21,-0.135 0.354,-0.135 0.146,0 0.265,0.045 0.356,0.135 0.091,0.089 0.137,0.208 0.137,0.356 v 3.613 z"
   id="path153"
   inkscape:connector-curvature="0"
   style="fill:#ffffff" />
		<path
   d="m -66.769,234.512 c 0.429,-0.808 0.642,-1.497 0.642,-2.066 0,-0.428 -0.109,-0.778 -0.326,-1.047 -0.233,-0.29 -0.559,-0.435 -0.976,-0.435 -0.499,0 -0.874,0.182 -1.124,0.547 -0.215,0.313 -0.32,0.732 -0.32,1.256 v 0.115 h 0.927 v -0.23 c 0.011,-0.306 0.049,-0.518 0.111,-0.638 0.081,-0.144 0.211,-0.218 0.392,-0.218 0.287,0 0.432,0.248 0.432,0.743 0,0.77 -0.648,2.047 -1.943,3.831 v 0.894 h 2.75 v -0.894 h -1.725 c 0.565,-0.851 0.952,-1.469 1.16,-1.858 z"
   id="path155"
   inkscape:connector-curvature="0"
   style="fill:#ffffff" />
	</g>
</g>
<circle
   stroke-miterlimit="10"
   cx="-68.433998"
   cy="45.783001"
   r="4.3979998"
   id="circle157"
   sodipodi:cx="-68.433998"
   sodipodi:cy="45.783001"
   sodipodi:rx="4.3979998"
   sodipodi:ry="4.3979998"
   style="fill:none;stroke:#23a749;stroke-miterlimit:10"
   transform="translate(668.34698,0)" />
<circle
   stroke-miterlimit="10"
   cx="-73.269997"
   cy="57.188999"
   r="2.198"
   id="circle159"
   sodipodi:cx="-73.269997"
   sodipodi:cy="57.188999"
   sodipodi:rx="2.198"
   sodipodi:ry="2.198"
   style="fill:none;stroke:#f59d08;stroke-miterlimit:10"
   transform="translate(668.34698,0)" />
<circle
   stroke-miterlimit="10"
   cx="-65.434998"
   cy="58.016998"
   r="1.399"
   id="circle161"
   sodipodi:cx="-65.434998"
   sodipodi:cy="58.016998"
   sodipodi:rx="1.399"
   sodipodi:ry="1.399"
   style="fill:none;stroke:#f59d08;stroke-miterlimit:10"
   transform="translate(668.34698,0)" />
<circle
   stroke-miterlimit="10"
   cx="-78.457001"
   cy="51.244999"
   r="0.99900001"
   id="circle163"
   sodipodi:cx="-78.457001"
   sodipodi:cy="51.244999"
   sodipodi:rx="0.99900001"
   sodipodi:ry="0.99900001"
   style="fill:none;stroke:#f59d08;stroke-miterlimit:10"
   transform="translate(668.34698,0)" />
<rect
   x="-242.15602"
   y="273.16995"
   stroke-miterlimit="10"
   width="0"
   height="0"
   id="rect165"
   style="fill:none;stroke:#f59d08;stroke-width:1;stroke-miterlimit:10" />
<path
   d="m 611.14098,48.061 c -5.1e-4,6.269 -3.421,11.351 -7.64,11.351 l -43.839,0 c -4.219,0 -7.64,-5.082 -7.64,-11.351 l 0.004,-48.06003 59.119,0 z"
   id="path167"
   inkscape:connector-curvature="0"
   style="fill:#2d2d2c"
   sodipodi:nodetypes="ssssccs" />
<text
   id="text169"
   x="559.78839"
   y="25.614651"
   style="font-size:12px"><tspan
     x="559.78839"
     y="25.614651"
     font-size="12.1921"
     id="tspan171"
     style="font-size:12.19209957px;fill:#ffffff;font-family:Cafeta">THE BIGGEST</tspan><tspan
     x="559.78839"
     y="35.914639"
     font-size="11.129"
     id="tspan173"
     style="font-size:11.12899971px;fill:#ffffff;font-family:Cafeta">EVENT OF THE</tspan><tspan
     x="559.78839"
     y="53.674648"
     font-size="21.5477"
     id="tspan175"
     style="font-size:21.54770088px;fill:#ffffff;font-family:Cafeta">WORLD</tspan></text>


<text
   font-size="68.548"
   letter-spacing="-1"
   id="text177"
   style="font-size:68.54799652px;letter-spacing:-1;fill:#ffffff;font-family:Cafeta"
   x="53.260071"
   y="102.95505">REGISTER</text>


<text
   font-size="138.5942"
   letter-spacing="-3"
   id="text179"
   style="font-size:138.5941925px;letter-spacing:-3;fill:#ffffff;font-family:Cafeta"
   x="49.159485"
   y="206.10497">NOW</text>


<text
   id="text181"
   x="312.75229"
   y="64.614655"
   style="font-size:12px"><tspan
     x="312.75229"
     y="64.614655"
     font-size="14"
     id="tspan183"
     style="font-size:14px;fill:#ffffff;font-family:GauntletClassic">Click here and register</tspan><tspan
     x="312.75229"
     y="81.414642"
     font-size="14"
     id="tspan185"
     style="font-size:14px;fill:#ffffff;font-family:GauntletClassic">for the world’s biggest</tspan><tspan
     x="312.75229"
     y="98.214691"
     font-size="14"
     id="tspan187"
     style="font-size:14px;fill:#ffffff;font-family:GauntletClassic">event. It’s easy, simple</tspan><tspan
     x="312.75229"
     y="115.01469"
     font-size="14"
     id="tspan189"
     style="font-size:14px;fill:#ffffff;font-family:GauntletClassic">and pretty fast.</tspan><tspan
     x="312.75229"
     y="148.61467"
     font-size="14"
     id="tspan191"
     style="font-size:14px;fill:#ffffff;font-family:GauntletClassic">C’mon, you don’t wanna</tspan><tspan
     x="312.75229"
     y="165.41466"
     font-size="14"
     id="tspan193"
     style="font-size:14px;fill:#ffffff;font-family:GauntletClassic">miss a thing!</tspan></text>


<text
   font-size="10"
   id="text195"
   style="font-size:10px;fill:#ffffff;font-family:GauntletClassic"
   x="312.75229"
   y="205.44676">*For non brazilians only.</text>








<rect
   x="426.19098"
   y="273.16995"
   stroke-miterlimit="10"
   width="0"
   height="0"
   id="rect253"
   style="fill:none;stroke:#f59d08;stroke-width:1;stroke-miterlimit:10" />






</svg>