<?xml version="1.0" encoding="UTF-8" standalone="no"?>
<!-- Created with Inkscape (http://www.inkscape.org/) -->

<svg
   xmlns:dc="http://purl.org/dc/elements/1.1/"
   xmlns:cc="http://creativecommons.org/ns#"
   xmlns:rdf="http://www.w3.org/1999/02/22-rdf-syntax-ns#"
   xmlns:svg="http://www.w3.org/2000/svg"
   xmlns="http://www.w3.org/2000/svg"
   xmlns:sodipodi="http://sodipodi.sourceforge.net/DTD/sodipodi-0.dtd"
   xmlns:inkscape="http://www.inkscape.org/namespaces/inkscape"
   version="1.1"
   id="svg2"
   width="500"
   height="354.66666"
   viewBox="0 0 500 354.66666"
   sodipodi:docname="flowerSeamless_Border.svg"
   inkscape:version="0.92.3 (2405546, 2018-03-11)">
  <metadata
     id="metadata8">
    <rdf:RDF>
      <cc:Work
         rdf:about="">
        <dc:format>image/svg+xml</dc:format>
        <dc:type
           rdf:resource="http://purl.org/dc/dcmitype/StillImage" />
        <dc:title />
      </cc:Work>
    </rdf:RDF>
  </metadata>
  <defs
     id="defs6" />
  <sodipodi:namedview
     pagecolor="#ffffff"
     bordercolor="#666666"
     borderopacity="1"
     objecttolerance="10"
     gridtolerance="10"
     guidetolerance="10"
     inkscape:pageopacity="0"
     inkscape:pageshadow="2"
     inkscape:window-width="1066"
     inkscape:window-height="622"
     id="namedview4"
     showgrid="false"
     inkscape:zoom="0.66541355"
     inkscape:cx="243.62871"
     inkscape:cy="177.33333"
     inkscape:window-x="121"
     inkscape:window-y="84"
     inkscape:window-maximized="0"
     inkscape:current-layer="svg2" />
  <path
     style="fill:#ffffff;fill-opacity:0.0627451;stroke-width:1.1603353"
     d="m 77.043323,251.44696 c -7.4982,-2.96628 -14.698843,-9.30151 -19.269988,-16.95399 -10.922839,-18.28581 -4.423558,-40.15482 14.960764,-50.34047 4.913169,-2.58168 7.312134,-3.05499 15.664524,-3.09067 5.42457,-0.0232 12.426477,0.42128 15.559797,0.98766 5.3194,0.96155 5.63866,0.88466 4.8171,-1.16033 -3.46499,-8.62496 -0.53362,-18.60303 6.86459,-23.36625 9.59584,-6.17812 20.63961,0.22512 18.65293,10.81508 -0.94203,5.02143 -6.30444,10.94121 -9.91105,10.94121 -5.82049,0 -10.36305,-4.42652 -10.4191,-10.15294 -0.0387,-3.96563 -1.61777,-5.05192 -2.81359,-1.93568 -2.31424,6.03081 0.0911,13.88817 5.86402,19.15603 6.65257,6.07047 11.25469,8.01694 18.95476,8.01694 8.78633,0 16.69245,-3.98732 24.32543,-12.26812 7.84729,-8.51331 10.82108,-16.46862 10.81443,-28.93006 -0.004,-9.31967 -0.38541,-11.20171 -3.519,-17.40932 -7.28806,-14.43757 -20.38683,-22.59657 -36.25792,-22.58442 -8.64936,0.007 -9.15978,1.78949 -0.95695,3.3426 13.29277,2.51681 18.48797,4.76368 24.18331,10.45904 6.31413,6.31411 8.89157,13.72625 6.82976,19.64077 -1.23389,3.53955 -4.59925,5.62763 -6.83903,4.24335 -1.47019,-0.90862 -1.54724,-5.22792 -0.0933,-5.22792 1.99097,0 4.72422,-3.62321 4.72422,-6.26246 0,-3.27773 -4.88952,-8.00739 -7.71543,-7.46317 -2.58922,0.49865 -3.54281,4.38233 -1.40104,5.70601 1.17146,0.72402 1.22597,1.2899 0.22099,2.29487 -2.56016,2.56016 -9.32516,-0.89536 -13.39379,-6.84147 -4.45708,-6.51383 -6.1495,-8.31981 -7.79657,-8.31981 -1.63647,0 -1.68122,-0.18193 1.65762,6.73916 1.59547,3.30723 2.90085,6.31827 2.90085,6.69119 0,1.17205 -7.08833,-0.8194 -10.87637,-3.05569 -1.99531,-1.17794 -5.55401,-4.44703 -7.90822,-7.26466 -4.22322,-5.05452 -8.44536,-7.36953 -9.70964,-5.32386 -0.35668,0.5771 0.81764,2.33911 2.60959,3.91557 4.03826,3.55263 1.44636,3.9487 -4.02204,0.61462 -4.683017,-2.85523 -4.903377,-2.85812 -4.903377,-0.0641 0,3.13191 -1.9276,4.01759 -2.65876,1.22163 -0.33106,-1.26598 -1.42768,-2.61863 -2.43694,-3.00592 -2.87604,-1.10366 -19.653817,10.87758 -34.373008,24.54624 -12.544117,11.64882 -26.19075,22.64168 -32.472085,26.15746 -2.911583,1.62967 -4.590461,3.32311 -4.623573,4.66368 -0.0097,0.39564 2.331626,0.98415 5.203108,1.30781 2.871482,0.32366 6.004387,1.23873 6.962012,2.03349 2.011647,1.66952 2.370486,8.12287 0.451669,8.12287 -0.852098,0 -1.023642,1.41703 -0.505738,4.17765 0.587437,3.1313 0.284111,4.72971 -1.211042,6.38184 -2.761726,3.05167 -4.138185,2.75486 -3.269796,-0.70511 0.859513,-3.42455 -1.832114,-8.16489 -5.252568,-9.2505 -3.037663,-0.96411 -5.448403,0.4338 -11.935674,6.92105 -4.9550537,4.95506 -5.7763377,5.35169 -10.3935667,5.01939 -4.364152,-0.31408 -5.238772,-0.84591 -6.7538823,-4.10678 -0.957277,-2.06028 -2.124962,-3.75727 -2.594857,-3.77109 -0.469894,-0.0138 -5.169251,2.36727 -10.443017,5.29129 -12.238668,6.78568 -24.880275,11.075 -34.825954,11.8165 -6.429568,0.47937 -7.832263,0.27399 -7.832263,-1.14667 0,-1.3253 2.106064,-1.89329 8.992598,-2.42523 4.945929,-0.38204 11.232323,-1.50547 13.969763,-2.49652 6.947644,-2.51528 23.868427,-11.10138 24.816739,-12.59275 0.432038,-0.67944 0.04009,-2.67685 -0.870984,-4.43868 -3.008658,-5.8181 2.139282,-13.0771 10.2633983,-14.47219 4.174835,-0.71691 10.127929,-5.87138 10.127929,-8.76924 0,-2.40259 -4.770528,-7.78093 -7.27586,-8.20286 -2.484641,-0.41845 -2.45969,-0.49823 0.630678,-2.01653 2.885205,-1.41751 3.558726,-1.32868 6.518532,0.85959 2.36519,1.74866 3.6563717,2.08492 4.5550167,1.18629 0.898644,-0.89865 2.093323,-0.70431 4.214568,0.68558 2.352239,1.54125 2.960418,2.88775 2.960418,6.55433 0,2.53803 0.470486,4.61459 1.045527,4.61459 1.488489,0 11.591292,-12.00442 17.523387,-20.82175 5.134251,-7.63144 11.599801,-23.60693 11.599801,-28.66151 0,-1.62453 -0.854413,-3.1062 -2.030584,-3.52131 -3.545334,-1.25125 -7.252095,-5.32659 -7.252095,-7.97321 0,-3.31911 -2.43297,-5.37371 -4.680255,-3.95238 -7.714266,4.879 -19.251114,-5.14391 -16.864811,-14.651691 1.033291,-4.116959 5.951241,-8.402878 10.654444,-9.285208 4.977708,-0.933824 7.409617,0.0061 7.409617,2.862692 0,2.856295 5.841635,7.831453 10.360833,8.824027 6.87838,1.510748 14.74488,-4.811229 16.942387,-13.615884 0.620237,-2.48507 1.481481,-3.190922 3.893435,-3.190922 8.783265,0 14.662903,13.020124 9.974143,22.087176 -1.928703,3.72969 -4.811089,4.87666 -10.953646,4.35872 -3.845554,-0.32426 -4.044885,-0.14796 -4.784242,4.23114 -0.691371,4.09492 -2.846463,6.90379 -7.435203,9.69085 -0.746189,0.4532 -2.291842,4.74015 -3.434796,9.52653 -1.142944,4.78638 -3.157211,11.05219 -4.476138,13.92402 -2.839508,6.18277 -11.982172,19.85282 -16.984099,25.39453 -3.399289,3.76612 -4.414605,5.93453 -2.778738,5.93453 0.421827,0 4.729572,-2.9774 9.572765,-6.61645 16.9138,-12.70856 41.014945,-37.83393 57.096227,-59.52266 9.707957,-13.093057 11.073377,-15.408909 9.411717,-15.962798 -0.86799,-0.289324 -1.42588,-2.691653 -1.42588,-6.139902 0,-4.681428 -0.62503,-6.376478 -3.601197,-9.766142 -1.98067,-2.255857 -4.59142,-4.101556 -5.80167,-4.101556 -2.84985,0 -2.82553,-1.904501 0.0439,-3.440173 3.93508,-2.106 8.1545,-1.36834 11.244517,1.965837 2.57815,2.78188 2.87345,3.945964 2.42833,9.572766 -0.2787,3.523166 -0.90209,7.5806 -1.38531,9.016515 -2.11321,6.279526 2.1401,1.14794 16.59002,-20.01578 14.10051,-20.65187 17.61218,-24.91633 17.61218,-21.387605 0,1.575573 -24.18048,37.258865 -35.00934,51.663498 -7.177067,9.54701 -5.868917,9.83959 6.83533,1.52879 34.74163,-22.727116 77.33494,-31.933741 109.72513,-23.717297 6.21368,1.576225 12.33698,3.422124 13.60733,4.102 2.84777,1.524077 3.06872,3.984225 0.27913,3.107952 -19.22352,-6.038507 -42.38379,-9.27834 -48.95361,-6.848006 -2.68575,0.993523 -2.60901,1.119248 2.34755,3.845632 4.2084,2.314858 5.18905,3.489802 5.48767,6.575043 0.27666,2.858263 -0.0923,3.756527 -1.54262,3.756527 -1.50495,0 -1.74876,0.716835 -1.15826,3.405407 0.56419,2.568669 0.15917,3.994212 -1.6483,5.801682 -3.82311,3.82311 -5.83193,3.16676 -3.52138,-1.15054 0.8753,-1.635512 0.73138,-3.131517 -0.53725,-5.584791 -3.15071,-6.092804 -7.42859,-6.305868 -14.45554,-0.719985 -4.00438,3.18318 -6.14374,4.049907 -9.99645,4.049907 -5.90421,0 -11.01637,-3.50727 -11.01637,-7.557917 0,-1.511478 -0.51816,-3.068393 -1.15147,-3.459797 -1.69725,-1.048949 -19.9316,7.360787 -32.30676,14.899983 -11.07777,6.7488 -27.427027,18.69102 -30.257247,22.10121 -3.1207,3.76022 0.0807,3.41407 8.00376,-0.86538 4.42243,-2.38865 12.631457,-5.67592 18.242307,-7.30505 8.73849,-2.53727 11.86561,-2.89151 21.80488,-2.47015 10.43727,0.44247 12.50206,0.92081 20.54601,4.75975 11.61658,5.54398 20.32775,7.7454 30.64915,7.7454 23.81271,0 44.58385,-15.51577 54.82887,-40.95642 0.71885,-1.785034 1.30188,-7.528691 1.29565,-12.763688 -0.009,-7.588157 -0.57438,-10.727415 -2.78809,-15.481782 -3.43862,-7.385096 -9.94828,-14.715396 -16.45357,-18.527745 -11.26565,-6.602103 -27.823,-2.14484 -33.6525,9.059299 -2.10289,4.041672 -2.0989,11.858139 0.007,13.605831 1.82106,1.511339 2.33492,0.963394 3.44231,-3.670686 1.83546,-7.68083 12.68296,-8.757604 17.04755,-1.692216 5.08098,8.22508 -2.65596,17.113297 -13.12778,15.081234 -4.33527,-0.841263 -9.94602,-6.85088 -11.38482,-12.194146 -1.27149,-4.721968 -2.68768,-5.316456 -6.24866,-2.623064 -2.91783,2.206928 -5.40578,2.195588 -4.55528,-0.02077 0.43137,-1.124118 -0.36458,-2.11457 -2.28653,-2.845295 -3.1424,-1.194739 -5.94848,-5.223717 -4.86226,-6.981261 0.36031,-0.582974 2.40178,-0.776507 4.53661,-0.430071 3.57781,0.5806 4.44807,0.03739 11.12314,-6.943048 7.94833,-8.311952 11.20153,-9.804332 16.0018,-7.340704 2.10166,1.078624 5.2549,1.429898 9.29362,1.035313 15.00832,-1.466319 31.25443,11.405791 35.6384,28.236992 1.96974,7.562329 1.40133,19.858181 -1.3027,28.180244 -2.39734,7.37814 -8.79301,16.432203 -17.09023,24.193843 -14.35133,13.42497 -33.03395,19.06324 -50.64901,15.28549 -6.80448,-1.4593 -8.10331,-0.838 -5.80504,2.77685 3.31412,5.21258 5.52463,10.86866 6.9373,17.7507 3.89162,18.95848 -8.99434,42.03198 -27.40938,49.07901 -10.10597,3.86734 -15.12067,3.30063 -29.59975,-3.34504 -15.89197,-7.29418 -20.993417,-8.56559 -31.629807,-7.88299 -10.910402,0.7002 -17.356398,4.28774 -23.752233,13.21943 -10.086973,14.08629 -8.238289,30.49989 4.8799,43.32632 9.214701,9.00975 22.977373,12.75813 18.086053,4.9259 -2.39525,-3.8354 -0.29005,-8.19418 5.60491,-11.60483 9.05153,-5.23699 14.251197,-10.91831 14.251197,-15.57133 0,-4.35616 -2.38923,-7.73393 -6.962007,-9.84254 l -2.90084,-1.33764 3.34406,-0.0786 c 8.105797,-0.1903 15.801467,9.44578 15.801467,19.78574 0,6.6042 -4.63691,16.13748 -9.99894,20.55731 -3.948567,3.25474 -12.817937,6.05062 -18.807877,5.92879 -1.70631,-0.0347 -5.34045,-0.94847 -8.07585,-2.03059 z m 49.371017,-4.36395 c -3.76703,-2.04397 -4.84576,-5.54615 -4.09976,-13.31001 0.72542,-7.54956 5.25084,-13.97203 14.78801,-20.9871 4.13162,-3.03904 7.66926,-5.36829 7.86142,-5.17615 0.19214,0.19215 -0.70808,2.81624 -2.00048,5.8313 -1.83411,4.27881 -2.35793,8.07106 -2.38672,17.27918 -0.04,12.76162 -0.83261,14.92296 -6.22496,16.97313 -3.94618,1.50032 -4.06429,1.49124 -7.93751,-0.61035 z m 150.82648,-11.44256 c -12.8841,-4.59789 -22.96314,-20.96138 -22.89437,-37.16943 0.0247,-5.8327 3.80637,-20.67587 6.19732,-24.32493 2.51931,-3.84496 1.45528,-4.19658 -5.12868,-1.69488 -21.42936,8.14252 -41.69678,-8.633 -32.41379,-26.82916 3.56882,-6.99549 9.23262,-8.8382 16.15791,-5.25701 5.61948,2.90596 6.26512,7.89659 1.72035,13.29775 -3.28353,3.90225 -8.93638,4.82852 -13.20369,2.16353 -5.3427,-3.33656 -4.18974,4.44787 1.50177,10.13937 7.18642,7.18642 19.51419,7.61698 29.92466,1.04514 6.36744,-4.01959 8.30504,-7.36175 6.78908,-11.71045 -1.67865,-4.81538 0.19749,-9.15836 5.24219,-12.1348 3.75219,-2.21384 4.07902,-2.847 4.07902,-7.9021 0,-5.84697 -3.5587,-18.14551 -6.70168,-23.16034 -4.02575,-6.42337 -11.24044,-14.31539 -17.79273,-19.463172 -6.71995,-5.279494 -8.25183,-7.365077 -5.38422,-7.330372 2.4515,0.02968 17.90271,13.526134 21.51676,18.794674 7.881,11.48886 9.95994,16.99309 10.47324,27.7292 0.44758,9.36155 0.74321,10.39234 3.82818,13.34792 4.45487,4.26804 4.56524,9.86929 0.27286,13.84734 -1.68865,1.56499 -4.27907,2.84544 -5.75648,2.84544 -4.84522,0 -11.41248,9.58557 -15.73596,22.96821 -5.57346,17.25173 0.36962,37.35211 13.43057,45.42423 5.47651,3.38466 6.4908,3.04571 6.4908,-2.16912 0,-6.16402 3.97152,-9.3669 11.6148,-9.3669 8.44419,0 12.51909,-1.1718 16.27467,-4.68004 5.55108,-5.18548 4.36505,-12.90929 -2.36209,-15.3828 -1.23417,-0.4538 -1.05611,-0.66663 0.61206,-0.73158 5.62301,-0.21896 10.99128,7.00634 10.99128,14.79342 0,9.07109 -6.25018,17.99353 -15.66452,22.3618 -5.54984,2.57514 -17.62998,2.85059 -24.07931,0.54906 z M 89.268873,219.79798 c -1.11683,-0.65049 -2.01472,-2.3316 -1.9953,-3.73581 0.0317,-2.29212 0.15617,-2.34553 1.21799,-0.5225 0.65048,1.11682 1.93999,2.03058 2.86555,2.03058 0.92557,0 1.68285,0.78323 1.68285,1.7405 0,2.01748 -0.93615,2.13844 -3.77109,0.48723 z M 296.33069,206.89517 c -1.50797,-1.50797 -1.85246,-4.72277 -0.63641,-5.93883 0.75065,-0.75063 3.88535,4.33507 3.88535,6.30354 0,1.45467 -1.61033,1.27391 -3.24894,-0.36471 z m -340.02451,-7.14928 c -9.542049,-3.45477 -12.472839,-11.81578 -6.277538,-17.90868 l 3.190921,-3.13818 0.624625,6.22166 c 0.529333,5.27251 1.249755,6.77714 4.722349,9.86285 2.253749,2.00265 5.105574,4.26317 6.337387,5.02336 2.039913,1.25892 1.929201,1.3804 -1.241344,1.36214 -1.914553,-0.0104 -5.224934,-0.65144 -7.3564,-1.42315 z m 96.154374,-7.70301 c -0.09023,-6.383 -6.712867,-13.37302 -14.275502,-15.0674 l -3.74202,-0.83838 3.20578,-0.87914 c 5.502498,-1.50899 13.647659,0.39029 17.28873,4.03137 4.067225,4.06722 4.206639,8.10392 0.42819,12.39876 l -2.864171,3.25563 z M 195.20319,169.47353 c -2.04071,-2.17223 -2.87534,-4.84334 -3.53499,-11.31326 -0.88795,-8.7091 -2.30934,-13.02054 -6.16152,-18.68937 -1.21755,-1.79174 -1.93655,-3.53491 -1.59777,-3.87369 1.22376,-1.22375 15.46706,6.52321 19.60954,10.66567 7.92483,7.92485 10.10797,17.1018 5.47081,22.99698 -3.27586,4.16458 -9.97681,4.26845 -13.78607,0.21367 z M 93.245033,154.46218 c -1.94565,-5.38059 -6.64104,-9.78921 -11.37112,-10.67657 -5.239208,-0.98288 -5.916177,-2.42914 -1.58255,-3.38096 8.74109,-1.91986 18.55028,2.9337 18.55028,9.17865 0,3.11749 -2.21893,8.80986 -3.43417,8.80986 -0.40753,0 -1.38064,-1.76893 -2.16244,-3.93098 z M -60.124292,138.27355 v -18.95929 l 3.018912,-1.3755 c 2.488623,-1.13389 2.769396,-1.67617 1.598426,-3.0871 -0.781267,-0.94136 -2.139777,-1.71157 -3.018912,-1.71157 -0.879134,0 -1.598426,-0.78323 -1.598426,-1.7405 0,-2.65019 2.64297,-2.09535 7.794267,1.63623 11.762413,8.52064 12.816161,26.59719 2.227722,38.21549 -2.238492,2.45622 -7.769219,5.98151 -9.384199,5.98151 -0.350785,0 -0.63779,-8.53167 -0.63779,-18.95927 z m 86.051941,13.53471 c -0.512994,-7.61724 -6.191416,-14.22888 -12.260409,-14.27533 -3.296955,-0.0252 -3.324774,-0.0766 -1.270581,-2.34647 3.277973,-3.62212 11.314296,-3.21158 14.419974,0.73665 2.814988,3.57867 3.376909,14.89551 0.907318,18.27287 -1.328638,1.81702 -1.531266,1.54768 -1.796302,-2.38772 z m -55.510982,-7.80382 c -3.042104,-2.6167 -3.283452,-3.51624 -3.985999,-14.85639 -0.560506,-9.04738 -1.384445,-13.31891 -3.289323,-17.05278 -1.397824,-2.73997 -2.355167,-5.16807 -2.127435,-5.39581 0.997517,-0.99751 14.711666,8.83175 18.504068,13.26232 7.464676,8.7208 8.568518,19.69171 2.464396,24.49321 -3.930034,3.09137 -7.614868,2.94782 -11.565707,-0.45055 z M 245.7564,125.62108 c -1.19804,-6.3861 -7.43934,-11.32066 -14.31854,-11.32066 -4.99974,0 -5.23482,-0.12713 -3.15054,-1.7036 4.94211,-3.73802 19.98565,-1.32961 21.83745,3.49608 1.35335,3.52677 0.72334,8.39029 -1.43158,11.05149 l -2.15236,2.65805 z m 30.61653,-17.12234 c -4.51371,-2.47115 -4.29092,-2.59433 4.23388,-2.3409 5.42126,0.16117 6.36126,-0.20926 10.15294,-4.00093 2.2982,-2.2982 4.17854,-4.94436 4.17854,-5.880362 0,-2.651047 1.97015,-1.999785 2.74965,0.908922 2.39903,8.95193 -1.5281,13.66554 -11.31856,13.58531 -3.58044,-0.0293 -7.54657,-0.93078 -9.99645,-2.27204 z m 53.2861,-4.93142 c -0.0491,-0.15955 -0.18038,-2.059 -0.29171,-4.22102 -0.15654,-3.040285 -1.21831,-4.749163 -4.68614,-7.542183 -12.99984,-10.470177 -12.90152,-10.332756 -13.10535,-18.318624 -0.20052,-7.857248 -2.77691,-23.46931 -4.08772,-24.770392 -0.43673,-0.433478 -2.56119,0.559723 -4.72103,2.207112 -8.42199,6.423763 -21.77105,8.351543 -32.50494,4.694138 -11.68905,-3.982859 -21.73726,-17.413664 -21.73726,-29.054822 0,-10.215678 4.66132,-19.4832506 11.60571,-23.0743361 4.9674,-2.56874083 13.084,-2.2674467 15.66217,0.5813872 2.18851,2.4182764 0.88077,3.3174823 -1.44389,0.9928237 -2.00199,-2.0019882 -8.17287,0.9672018 -10.21418,4.9146676 -2.59331,5.0149096 -2.04997,8.7287416 2.45581,16.7858316 5.05829,9.045054 4.97678,12.843185 -0.34683,16.162228 -2.06107,1.28499 -3.62752,3.119574 -3.481,4.076851 0.14653,0.957276 2.87715,3.044642 6.06808,4.638589 11.72134,5.855113 25.28007,3.318278 35.63226,-6.666802 3.94945,-3.809396 4.24891,-4.546765 3.6427,-8.969576 -0.54499,-3.976124 -0.17822,-5.379665 2.09699,-8.024749 1.51661,-1.763178 4.57676,-3.57579 6.80032,-4.028023 4.89267,-0.995092 6.77792,-5.274649 6.87816,-15.6136246 0.0613,-6.3241757 -0.10095,-6.7386684 -2.54527,-6.4994017 C 319.9,1.9779568 317.85357,1.714572 316.78832,1.252096 c -1.15127,-0.49980973 -3.17074,-0.032399 -4.97896,1.1524041 -2.61843,1.7156641 -3.47989,1.7812959 -6.1855,0.4712568 -2.83549,-1.3729284 -2.91607,-1.5708836 -0.82272,-2.02093413 3.75591,-0.8074837 7.54218,-5.04937737 7.54218,-8.44978047 0,-3.7059083 -1.70103,-5.3278483 -9.67225,-9.2224963 -7.31512,-3.574096 -11.04257,-9.089696 -9.06943,-13.420265 1.1817,-2.593548 1.92918,-2.821494 9.14403,-2.788549 l 7.85714,0.03588 3.94222,5.232009 c 10.97926,14.571419 15.00578,32.3196214 10.70294,47.176766 -1.41337,4.880201 -1.36954,5.949647 0.39641,9.67111 3.46269,7.29709 0.28268,13.275374 -7.6227,14.330314 l -5.09819,0.680335 -0.36776,6.962011 c -0.97541,18.465234 11.94604,34.215301 28.07884,34.225544 8.04975,0.0044 13.21818,-2.66605 17.58073,-9.086108 4.78278,-7.03848 3.29729,-9.597481 -2.46906,-4.253406 -3.58492,3.322385 -6.17594,3.610247 -10.83055,1.203253 -3.75233,-1.9404 -4.72433,-3.857389 -4.72433,-9.317347 0,-2.889313 0.89994,-4.620373 3.57004,-6.86711 9.20431,-7.744925 20.83337,0.659885 19.33283,13.972652 -0.99276,8.807667 -6.8777,14.422046 -18.19126,17.354933 -4.68333,1.214096 -5.26665,1.720713 -5.07333,4.406152 0.14162,1.967003 -0.36858,3.034341 -1.45042,3.034341 -0.91787,0 -1.66886,0.783226 -1.66886,1.740499 0,2.71472 -6.39114,8.23614 -7.05133,6.09176 z M -38.322258,93.92445 c -0.822893,-0.995846 -4.1811,-4.583188 -7.462685,-7.971886 -3.449558,-3.562148 -6.308679,-7.719118 -6.777621,-9.854193 -0.89592,-4.079095 -2.882005,-4.209067 -4.645955,-0.304031 -2.028868,4.491513 -2.659543,2.749698 -2.745282,-7.582031 l -0.08396,-10.117734 2.768211,3.445804 c 2.59528,3.230538 2.817847,3.300828 3.562783,1.12513 3.621105,-10.575986 8.089438,-16.529773 18.963858,-25.268208 3.347522,-2.689993 2.527537,-3.74568 -4.18554,-5.388666 -14.206844,-3.477041 -21.195841,-6.212067 -21.195841,-8.294633 0,-1.925528 0.489006,-1.880432 6.671927,0.615299 3.66956,1.481215 9.742864,3.323416 13.49623,4.093783 6.677443,1.370524 6.88446,1.33579 9.619723,-1.614069 2.051099,-2.21202 3.941505,-3.010006 7.099721,-2.996969 5.320056,0.02196 6.361451,0.676653 9.200257,5.783909 2.096642,3.772041 2.939597,4.206482 11.8401873,6.10219 12.8489047,2.736646 25.8481807,8.302609 33.0477427,14.150215 8.849038,7.187327 9.229277,7.339578 8.514783,3.409205 -0.335517,-1.845659 -3.05406,-9.621555 -6.041207,-17.279766 -9.652215,-24.74564 -17.751408,-49.921179 -19.717557,-61.290083 -0.421719,-2.438511 -1.053084,-5.179803 -1.403035,-6.09176 -0.378015,-0.985092 0.07329,-1.658103 1.111896,-1.658103 1.240334,0 2.31086,2.612316 3.685163,8.992598 1.998156,9.276545 8.21802,29.8992429 12.248616,40.611732 1.26062,3.350468 3.395599,9.094128 4.744401,12.763688 1.348803,3.66956 4.187267,11.11021 6.307687,16.534776 2.120431,5.424567 4.497845,12.096508 5.283143,14.826521 0.785306,2.730022 1.955472,4.787793 2.60038,4.572823 0.644909,-0.214969 2.320926,-5.072347 3.724476,-10.794172 1.403551,-5.721825 4.223583,-14.567556 6.26675,-19.657178 2.308186,-5.749826 3.701425,-11.231018 3.679425,-14.475369 -0.01949,-2.871829 -0.05047,-8.700649 -0.06901,-12.9529316 -0.05543,-12.761959 -7.124332,-28.2199504 -16.622787,-36.3502734 -4.509802,-3.860221 -4.605704,-4.072214 -1.842227,-4.072214 3.683923,0 10.30812,7.309244 15.056255,16.613295 3.749593,7.3474204 7.927409,22.2854418 7.955797,28.446388 0.0093,2.127283 0.474148,3.693735 1.031892,3.481006 0.557744,-0.212728 4.132458,-4.324429 7.943794,-9.1371124 22.50491,-28.4175776 54.137077,-41.4268336 76.297717,-31.3787176 7.60198,3.446897 19.17457,13.055717 19.17457,15.9207958 0,2.6117133 -1.60882,1.8291963 -6.43644,-3.1306428 -16.50665,-16.958716 -39.82206,-17.138202 -64.34401,-0.495332 -28.853136,19.5824201 -48.885316,58.859516 -47.737002,93.597943 0.119756,3.622639 -0.320365,6.919169 -0.978032,7.325637 -0.657675,0.406468 -1.367852,0.05326 -1.578174,-0.784941 C 46.441452,74.37536 39.055382,60.02078 33.075797,55.070538 23.481015,47.127442 14.842934,43.05666 -0.0899487,39.440849 -11.906616,36.579591 -13.950277,36.713236 -17.139312,40.555789 c -1.77753,2.141791 -8.448861,2.377081 -11.600066,0.409122 -6.739912,-4.209144 -22.062699,14.295542 -22.090897,26.678245 -0.0226,9.923938 7.996193,19.552449 17.325767,20.803801 10.576016,1.418545 18.651726,-11.725652 10.378545,-16.892334 -1.988686,-1.241962 -2.860576,-1.173326 -5.286381,0.416119 -3.323536,2.177665 -4.948379,1.38303 -3.125675,-1.528623 3.050274,-4.872624 12.006129,-2.275594 14.482011,4.199512 0.699912,1.830452 1.865506,2.625792 3.637926,2.482314 5.277097,-0.427189 6.464153,-8.71e-4 5.909009,2.121968 -0.30746,1.175725 0.494537,3.015114 1.849132,4.241003 2.4838393,2.24785 3.1700933,5.828665 1.334468,6.963142 -0.581684,0.359501 -2.684492,-0.262363 -4.672906,-1.381941 -3.602987,-2.028643 -3.642709,-2.020759 -11.66642,2.315686 -8.66747,4.684364 -15.118974,5.612637 -17.657459,2.540647 z M 265.14225,86.233386 c -5.07932,-2.45565 -6.1915,-10.066292 -2.25713,-15.445533 1.50923,-2.063497 3.09001,-2.329654 14.2645,-2.401711 10.28871,-0.06631 13.46123,-0.520585 17.49859,-2.505454 6.06071,-2.979602 6.38881,-1.536673 1.27412,5.603322 -9.16741,12.797463 -22.04938,18.970313 -30.78008,14.749376 z M 17.143809,79.789568 c -0.438926,-0.438929 -1.809371,-3.084319 -3.045434,-5.878644 -1.71187,-3.869964 -1.95582,-5.625392 -1.02378,-7.366922 0.87532,-1.63555 0.845201,-2.742284 -0.105811,-3.888187 -1.033477,-1.245269 -0.793097,-2.061078 1.079814,-3.664707 4.606518,-3.944232 2.479364,-6.18845 -5.8656337,-6.18845 -5.980552,0 -11.229143,2.773896 -12.143759,6.418013 -0.9812313,3.909544 1.446697,6.6993 5.044529,5.796301 2.390469,-0.599977 2.730154,-0.325439 2.406771,1.945125 -0.217562,1.527552 -1.749799,3.299863 -3.629268,4.197919 -2.792516,1.334322 -3.648655,1.294821 -6.0509353,-0.27922 -4.760649,-3.119295 -5.673311,-6.066941 -3.571077,-11.53359 3.346567,-8.702402 12.9147893,-12.652549 24.156672,-9.972841 7.120877,1.697392 10.25452,3.447672 16.376293,9.146894 4.168695,3.880956 10.052683,13.475643 10.052683,16.392343 0,0.71613 -1.606511,-0.04978 -3.570033,-1.701934 -5.093459,-4.285866 -12.698363,-4.234843 -16.114529,0.108103 -1.346381,1.711645 -2.19031,3.783523 -1.875396,4.604178 0.651408,1.697539 -0.91311,3.073604 -2.121106,1.86561 z m 40.148521,-9.10021 c 1.097413,-16.217605 12.878913,-30.247819 27.228713,-32.42584 5.46487,-0.829461 14.03645,3.144024 16.518797,7.657533 3.2824,5.968174 -2.136407,13.824042 -8.443597,12.241046 -3.97684,-0.998126 -4.79513,-4.029368 -1.43286,-5.307699 1.49622,-0.568866 3.06747,-1.938699 3.49164,-3.044074 1.11395,-2.902945 -3.55926,-7.450683 -7.65627,-7.450683 -4.22357,0 -11.510639,2.981651 -13.393881,5.480377 -1.244042,1.65063 -0.955762,2.131514 2.030584,3.38718 2.31218,0.972197 3.480487,2.289043 3.480487,3.922994 0,1.352762 0.735,3.194571 1.63335,4.092914 1.10602,1.106029 1.44978,3.233263 1.0648,6.589048 -0.93259,8.128757 -1.40328,8.69174 -3.872392,4.631609 -1.229126,-2.021142 -3.546136,-4.003932 -5.148878,-4.406197 -3.792538,-0.951863 -9.636294,2.444998 -13.236064,7.693858 l -2.742197,3.99844 z M 137.3886,41.160303 c -9.48406,-1.932846 -15.45757,-8.218721 -17.64564,-18.568346 -2.81184,-13.3000916 -2.80982,-13.3453766 0.74536,-16.6888208 1.81528,-1.7071757 4.87249,-3.862812 6.7938,-4.7903013 5.92955,-2.8624486 9.85058,-7.2470581 9.85058,-11.0152355 0,-2.1030584 0.6049,-3.4340484 1.56066,-3.4340484 2.10002,0 5.40135,3.779151 5.40135,6.1831265 0,1.0665706 0.78323,1.9392205 1.7405,1.9392205 2.87076,0 1.97374,3.0784543 -1.82953,6.2786971 -1.96351,1.6521921 -4.05211,3.003985 -4.64134,3.003985 -1.70822,0 -1.23833,3.4897483 0.56296,4.1809663 0.89885,0.34492 2.2663,2.1529776 3.03877,4.0179086 1.95157,4.711503 -1.04949,9.513534 -5.61595,8.98613 -1.71504,-0.19808 -2.98773,-0.751758 -2.82817,-1.230396 0.15954,-0.478639 0.42062,-0.782019 0.58016,-0.674178 0.15955,0.107842 1.49661,-0.449641 2.97125,-1.238845 3.45737,-1.850325 2.95074,-5.487292 -1.1054,-7.935393 -2.62166,-1.5823176 -3.59571,-1.6306496 -6.72664,-0.3337736 -8.77435,3.6344546 -9.50219,17.3191416 -1.28421,24.1458796 2.93909,2.441534 6.73033,3.668671 13.59419,4.400124 8.63225,0.919902 15.04888,-1.597123 21.26604,-8.341956 5.87346,-6.371943 8.25126,-11.687767 9.16816,-20.4962836 0.92731,-8.90863513 3.0666,-8.0118097 2.83943,1.1903316 -0.19674,7.969454 -3.37999,14.932984 -10.12517,22.149461 -6.86705,7.346847 -17.54346,10.466198 -28.31116,8.271747 z m 96.90075,-7.938753 c -8.57096,-9.487037 -12.94241,-21.258289 -10.90672,-29.3691413 1.87209,-7.4590085 10.21226,-10.2767294 16.28325,-5.5012874 3.6107,2.8401685 3.92994,6.892816 1.22737,15.5803077 -1.97885,6.361032 -2.59231,17.074504 -1.21256,21.176118 1.31993,3.923797 -0.8183,3.175803 -5.39134,-1.885997 z m -91.69595,2.60866 c -1.21104,-1.211037 15.49048,-24.355181 33.69198,-46.68866 8.33663,-10.229166 9.69262,-12.483162 9.07461,-15.084357 -1.6627,-6.998423 -3.25633,-6.512313 22.46943,-6.853939 18.17071,-0.241298 23.93154,0.02953 24.6817,1.160336 1.7499,2.637774 -0.31329,9.499063 -4.01625,13.356465 -6.43877,6.70729 -15.8161,6.555756 -19.08942,-0.308476 -2.20856,-4.631404 -2.3769,-4.67798 -7.71195,-2.133876 -3.29825,1.572826 -4.64284,1.661242 -7.87163,0.517606 -3.74755,-1.327382 -4.03965,-1.213308 -7.77041,3.03459 -2.13206,2.427601 -6.30927,7.5971689 -9.28267,11.487929 -5.9413,7.7742971 -24.49774,32.501097 -28.86943,38.469049 -2.75112,3.755678 -3.92203,4.427268 -5.30596,3.043333 z M 95.002563,22.030448 c -3.67087,-4.600554 -9.42985,-6.162177 -16.12992,-4.373829 -5.846105,1.560417 -5.56953,-0.03999 0.63533,-3.676278 10.35373,-6.0676926 20.493997,-2.787558 20.493997,6.629321 0,5.718027 -1.280237,6.081861 -4.999407,1.420786 z m -138.882162,1.017051 c -0.957276,-0.309963 -5.003945,-1.893944 -8.992598,-3.519959 l -7.252095,-2.956391 V 6.8752749 c 0,-8.1928245 0.273042,-9.5910957 1.761343,-9.0199811 0.968738,0.3717401 3.31889,0.030737 5.222557,-0.7577923 2.402737,-0.9952456 3.904447,-1.0670544 4.910585,-0.2348121 0.797154,0.6593782 2.975556,1.3756099 4.840892,1.5916264 4.557521,0.5277851 5.070646,2.8195121 0.821573,3.6693263 -6.907862,1.3815729 -7.072519,14.1369279 -0.237593,18.4054099 3.797075,2.371313 3.150502,3.886539 -1.074664,2.518447 z M 273.66548,18.37938 c -1.66343,-1.663425 -0.61941,-2.707448 2.70745,-2.707448 3.71968,0 4.67609,1.613786 1.64559,2.776694 -2.35937,0.905381 -3.39489,0.888909 -4.35304,-0.06925 z M -8.50614,12.939769 C -17.037012,8.9671734 -20.989612,2.5329344 -21.081768,-7.5314632 c -0.05552,-6.0631208 0.500293,-8.6113808 2.670271,-12.2425288 4.296981,-7.190384 10.613163,-13.288155 13.76411,-13.288155 2.5016603,0 2.1905363,0.539729 -3.002548,5.208759 -6.558941,5.897051 -10.702289,13.616597 -10.702289,19.9396233 0,5.5522415 3.956563,13.6573855 8.110973,16.6155861 3.17414,2.2601876 7.5997853,3.2174926 6.7427643,1.4585186 C -3.7316927,9.6817014 -4.624701,7.8926784 -5.482949,6.1847321 -8.537594,0.10587737 -4.900423,-6.2206592 2.1962323,-7.1725193 c 4.0903,-0.5486248 5.245778,-0.2008802 7.791551,2.3448942 C 15.495669,0.68026077 12.79261,9.6462914 4.4874473,13.416961 -1.6164537,16.188224 -1.5229397,16.191659 -8.50614,12.939769 Z M 53.978064,4.5011055 C 50.95106,1.2747104 49.460624,0.58757457 45.489353,0.58757457 c -2.649376,0 -5.871737,0.56445563 -7.160814,1.25434543 -3.279969,1.755385 -3.779772,0.7081862 -1.638387,-3.4327877 3.456368,-6.6838842 9.850152,-7.8193674 15.806823,-2.8071596 2.050294,1.7252082 4.44004,4.84134297 5.310535,6.924742 3.034967,7.2636987 1.753052,7.9246263 -3.829446,1.9743908 z M 73.034657,-12.655568 c -0.422045,-5.257857 -1.627622,-9.343696 -4.10843,-13.924022 l -3.511108,-6.482557 h 9.913591 9.913583 l -0.65255,6.322529 c -0.62619,6.067193 -7.84791,21.525516 -10.056156,21.525516 -0.495878,0 -1.170401,-3.3486596 -1.49893,-7.441466 z m -113.43325,4.3013343 c -9.433018,-3.4482923 -9.091462,-17.1626633 0.48731,-19.5667813 3.767442,-0.945568 9.760005,2.377638 10.644854,5.903157 0.397522,1.583854 1.501966,2.879734 2.45432,2.879734 1.341936,0 1.619128,-1.109614 1.231914,-4.931425 -0.274801,-2.712283 -0.905394,-5.845188 -1.401317,-6.962011 -0.640236,-1.441812 -0.387112,-2.030587 0.87298,-2.030587 2.398572,0 4.681525,7.333693 3.779587,12.141436 -1.602649,8.542846 -11.068449,15.1258049 -18.069648,12.5664773 z m -16.631471,-3.4351013 c -0.425457,-0.425455 -0.773557,-1.730833 -0.773557,-2.900839 0,-1.170004 -0.522151,-2.12728 -1.160336,-2.12728 -0.638184,0 -1.160335,-2.072216 -1.160335,-4.604924 0,-3.886416 0.316832,-4.492563 2.030586,-3.884803 3.89144,1.380048 6.09176,4.218086 6.09176,7.857331 0,4.651585 -2.839932,7.8487018 -5.028118,5.660515 z m 319.055274,-6.272671 c -3.20789,-2.523334 -3.80833,-5.122135 -1.85716,-8.03813 1.01817,-1.521643 1.36031,-1.485165 2.72091,0.290085 3.38245,4.413291 9.9299,0.512001 8.4754,-5.050049 -0.4071,-1.55676 0.0327,-2.202047 1.50086,-2.202047 4.51564,0 3.8609,11.404714 -0.86833,15.124714 -3.69913,2.909745 -6.15313,2.879087 -9.97168,-0.124573 z m -22.41663,-7.167878 c 3.12719,-7.379136 3.60669,-7.813996 8.62621,-7.82321 7.13874,-0.01311 6.47721,2.491727 -1.77622,6.725578 -5.61192,2.878795 -7.75001,3.221401 -6.84999,1.097632 z m -126.57365,-5.511592 c 0.79711,-1.276369 2.43841,-2.320671 3.64733,-2.320671 1.90643,0 1.80663,0.307887 -0.75222,2.320671 -1.62263,1.276369 -3.26393,2.32067 -3.64732,2.32067 -0.38338,0 -0.0449,-1.044301 0.75221,-2.32067 z"
     id="path819"
     inkscape:connector-curvature="0" />
</svg>
