<?xml version="1.0" encoding="UTF-8" standalone="no"?>
<!-- Created with Inkscape (http://www.inkscape.org/) -->

<svg
   xmlns:dc="http://purl.org/dc/elements/1.1/"
   xmlns:cc="http://creativecommons.org/ns#"
   xmlns:rdf="http://www.w3.org/1999/02/22-rdf-syntax-ns#"
   xmlns:svg="http://www.w3.org/2000/svg"
   xmlns="http://www.w3.org/2000/svg"
   xmlns:sodipodi="http://sodipodi.sourceforge.net/DTD/sodipodi-0.dtd"
   xmlns:inkscape="http://www.inkscape.org/namespaces/inkscape"
   version="1.1"
   id="svg2"
   width="682.66669"
   height="682.66669"
   viewBox="0 0 682.66669 682.66669"
   sodipodi:docname="guitar.svg"
   inkscape:version="0.92.3 (2405546, 2018-03-11)">
  <metadata
     id="metadata8">
    <rdf:RDF>
      <cc:Work
         rdf:about="">
        <dc:format>image/svg+xml</dc:format>
        <dc:type
           rdf:resource="http://purl.org/dc/dcmitype/StillImage" />
        <dc:title />
      </cc:Work>
    </rdf:RDF>
  </metadata>
  <defs
     id="defs6" />
  <sodipodi:namedview
     pagecolor="#ffffff"
     bordercolor="#666666"
     borderopacity="1"
     objecttolerance="10"
     gridtolerance="10"
     guidetolerance="10"
     inkscape:pageopacity="0"
     inkscape:pageshadow="2"
     inkscape:window-width="1366"
     inkscape:window-height="711"
     id="namedview4"
     showgrid="false"
     inkscape:zoom="0.69140623"
     inkscape:cx="-189.31341"
     inkscape:cy="344.47159"
     inkscape:window-x="0"
     inkscape:window-y="0"
     inkscape:window-maximized="1"
     inkscape:current-layer="svg2" />
  <path
     style="fill:#000000;fill-opacity:0.09803922;stroke-width:1.66794682"
     d="M 167.20612,660.43955 C 155.37576,658.48651 143.22546,653.90124 125.53723,644.71464 107.64659,635.42292 95.074814,625.99694 77.301496,608.5488 49.825385,581.57541 32.883233,556.43023 23.641816,528.90826 8.0753318,482.54955 20.866198,425.62058 54.523228,391.4628 81.546027,364.03795 115.11335,351.57132 168.87407,348.99379 c 20.35103,-0.97571 25.44056,-1.76969 32.10352,-5.00815 11.90408,-5.78589 18.82072,-14.979 23.90793,-31.77671 5.9651,-19.69642 15.70181,-39.96724 23.16603,-48.22926 13.02361,-14.41556 37.00415,-21.52601 57.6589,-17.09632 12.97214,2.78199 31.49073,12.18839 41.22402,20.93945 4.6232,4.15665 13.46044,8.95053 14.0266,8.95053 1.66944,0 157.78112,-137.96237 163.7526,-145.32827 3.00028,-3.70085 6.62724,-10.91957 8.0599,-16.04157 1.95155,-6.97702 4.34839,-10.91596 9.55649,-15.705038 3.82338,-3.51576 6.06524,-5.942896 4.98195,-5.393614 -1.08334,0.549284 -2.47278,0.184706 -3.08763,-0.81017 -0.61487,-0.994877 -2.05282,-1.450113 -3.19548,-1.011652 -1.14264,0.438474 -4.22073,-0.911712 -6.8402,-3.000403 -4.70325,-3.750241 -4.72606,-3.853569 -1.82645,-8.278915 1.61494,-2.464705 4.08089,-4.920527 5.47988,-5.457364 2.73553,-1.049717 8.91676,4.128731 9.52848,7.982701 0.20485,1.290504 1.19958,3.795338 2.21049,5.566297 1.70856,2.993073 2.63161,2.523237 13.1009,-6.668292 l 11.26283,-9.888227 -5.67833,-1.671431 c -9.0976,-2.677919 -13.64855,-6.637358 -12.346,-10.741332 0.61597,-1.940713 2.93777,-4.719683 5.15957,-6.17545 3.81349,-2.498694 4.22351,-2.426176 7.32377,1.295393 1.80628,2.168238 3.30909,5.211475 3.33962,6.762739 0.0305,1.551253 0.81832,3.291915 1.75065,3.868132 0.93232,0.576217 1.26333,1.746378 0.73553,2.600358 -2.78605,4.507921 2.99646,0.387648 11.46193,-8.167056 l 9.61834,-9.719746 -6.33465,-1.977805 c -13.0491,-4.074202 -15.35062,-10.357398 -6.03071,-16.464022 4.05475,-2.656789 4.34355,-2.605838 7.34216,1.295394 1.71675,2.233526 3.13806,5.009369 3.15845,6.168534 0.0204,1.159151 0.90911,3.503875 1.9749,5.210472 1.79225,2.869853 2.38734,2.581282 7.92275,-3.841872 3.29171,-3.819631 8.30959,-9.857153 11.15082,-13.416709 l 5.1659,-6.471917 6.50974,5.171295 c 3.58035,2.844219 9.35634,5.688327 12.8355,6.320236 9.06611,1.646665 18.8338,11.530799 21.3774,21.632277 1.1001,4.36894 4.19262,10.440575 6.87227,13.492517 l 4.87206,5.548983 -7.91079,5.474826 c -12.61421,8.729888 -16.32253,12.277635 -15.02609,14.375345 0.65985,1.067632 2.46892,1.966109 4.02018,1.996632 1.55126,0.03052 4.5945,1.533352 6.76275,3.339625 3.74279,3.117969 3.80608,3.491949 1.25096,7.391569 -1.48023,2.2591 -4.11575,4.86979 -5.85672,5.80154 -2.58882,1.38549 -3.70281,0.87387 -6.11581,-2.80883 -1.62272,-2.47658 -2.95041,-5.64294 -2.95041,-7.03635 0,-1.3934 -0.95381,-3.487272 -2.11956,-4.653042 -1.71413,-1.714128 -4.05994,-0.504789 -12.26345,6.322242 -8.85378,7.36819 -9.83678,8.74891 -7.72926,10.85644 1.32803,1.32803 3.51095,2.41462 4.85089,2.41462 1.33996,0 4.11595,1.36009 6.16884,3.02244 4.60415,3.72821 3.46118,8.78322 -2.73581,12.09974 -3.95818,2.11836 -4.58672,1.9851 -7.47813,-1.58566 -1.73618,-2.14412 -3.15674,-5.27211 -3.15674,-6.95108 0,-1.67897 -0.76282,-3.52412 -1.69514,-4.10034 -0.93233,-0.57622 -1.20315,-1.84374 -0.60181,-2.81676 2.506,-4.05476 -2.47621,0.13857 -11.29351,9.50536 -7.9781,8.4753 -9.06031,10.34001 -7.06773,12.17804 1.29409,1.1937 3.03966,1.74591 3.87908,1.22713 0.83937,-0.51877 3.5531,0.80027 6.03047,2.93122 5.35809,4.60882 4.62555,9.43472 -1.96775,12.96334 -3.95816,2.11837 -4.58671,1.9851 -7.47812,-1.58566 -1.7362,-2.14412 -3.15674,-5.27212 -3.15674,-6.95109 0,-1.67896 -0.76281,-3.52412 -1.69515,-4.10032 -0.93233,-0.57621 -1.23676,-1.93402 -0.67649,-3.01736 0.5603,-1.0833 -2.24213,1.52583 -6.22757,5.79811 -6.13748,6.57916 -8.45941,7.91432 -15.17436,8.72555 -4.36045,0.52676 -10.83454,2.44052 -14.38687,4.25278 -6.75894,3.44816 -147.8707,134.51119 -175.90415,166.43876 -16.87667,19.221 -20.67426,25.90202 -21.71979,38.21101 -1.01646,11.96693 1.85519,19.10124 11.2111,27.85257 10.59098,9.90663 18.88394,12.25972 31.76834,9.01413 5.29506,-1.33383 10.92993,-1.81767 12.85887,-1.10411 4.31594,1.59657 1.22572,3.77115 -1.36155,8.65914 -7.88905,14.90435 -13.17026,26.78986 -42.57192,36.83648 -26.09346,8.91622 -29.80824,10.74248 -36.67308,18.02922 -9.68338,10.27853 -11.70105,16.73009 -12.95505,41.42399 -2.73597,53.87688 -10.23666,79.09105 -32.08988,107.87287 -23.47805,30.92177 -63.60624,50.87245 -101.34702,50.38709 -8.33893,-0.10721 -19.28986,-0.8765 -24.33541,-1.70946 z m 41.63999,-131.42164 c 0.94964,-1.77444 1.72663,-3.79357 1.72663,-4.48699 0,-0.69342 -14.04734,-15.379 -31.21634,-32.63462 -30.94284,-31.09901 -35.2765,-34.26762 -40.17178,-29.37233 -4.79608,4.79608 -1.60588,9.20329 28.42159,39.26368 24.57538,24.60235 31.29673,30.4565 34.9682,30.4565 2.7865,0 5.21313,-1.2483 6.2717,-3.22624 z m 44.27043,-66.83877 11.59731,-11.68687 -23.28691,-23.3316 -23.28694,-23.3316 -12.13345,12.05251 -12.13347,12.05248 22.92203,22.96598 c 12.6071,12.63128 23.32748,22.96597 23.82305,22.96597 0.49559,0 6.11985,-5.25909 12.49838,-11.68687 z m 42.52634,-85.04916 c -12.36171,-12.38718 -23.25692,-22.52216 -24.21166,-22.52216 -0.95471,0 -6.95462,5.25908 -13.33316,11.68686 l -11.59732,11.68689 23.29977,23.34445 23.29979,23.34448 12.50918,-12.5092 12.50919,-12.50918 z"
     id="path817"
     inkscape:connector-curvature="0"
     sodipodi:nodetypes="cssssscsscsssccccccssccscscccsscscscccccccssccccccccccscccscscsscssccccscccccsscscsscsscccsscsscscccccsssssccccccs" />
</svg>
