<svg xmlns="http://www.w3.org/2000/svg" xmlns:xlink="http://www.w3.org/1999/xlink" width="1066.7" height="1066.7" viewBox="0 0 1066.667 1066.667"><defs><clipPath id="A"><path d="M182.3 162.63L139.247 2.96 63.9 32.897z"/></clipPath><linearGradient id="B" x2="59.35" x1="206.95" y1="11.929" y2="164.139" xlink:href="#Cf"><stop stop-color="#dc7a06" offset="0"/><stop stop-color="#db7104" offset="1"/></linearGradient><clipPath id="C"><path d="M182.3 162.63L63.9 32.9v184.62z"/></clipPath><linearGradient id="D" x2="40.14" x1="169.16" y1="60.97" y2="176.04" xlink:href="#Cf"><stop stop-color="#dc7704" offset="0"/><stop stop-color="#de7403" offset="1"/></linearGradient><clipPath id="E"><path d="m63.889 32.896-68.182 124.74 68.182 59.876z"/></clipPath><linearGradient id="F" x2="7.651" x1="86.567" y1="133.61" y2="174.134" xlink:href="#Cf"><stop stop-color="#e87902" offset="0"/><stop stop-color="#ee9307" offset="1"/></linearGradient><clipPath id="G"><path d="M139.25 2.96L63.892 32.896l-93.302-40z"/></clipPath><linearGradient id="H" x2="-84.97" x1="114.63" y1="-718.63" y2="745.06" xlink:href="#Cf"><stop stop-color="#da6f03" offset="0"/><stop stop-color="#de7002" offset="1"/></linearGradient><clipPath id="I"><path d="M63.9 217.5l-68.182-59.876-21.53 89.813z"/></clipPath><linearGradient id="J" x2="-39.579" x1="70.121" y1="121.866" y2="274.221" xlink:href="#Cf"><stop stop-color="#eeac3f" offset="0"/><stop stop-color="#e9a72f" offset="1"/></linearGradient><clipPath id="K"><path d="m63.889 32.896-68.182 124.74-25.12-89.814z"/></clipPath><linearGradient id="L" x2="-49.328" x1="65.022" y1="29.505" y2="148.431" xlink:href="#Cf"><stop stop-color="#e48005" offset="0"/><stop stop-color="#ea960a" offset="1"/></linearGradient><clipPath id="M"><path d="M63.9 32.896l-93.302-40v74.937z"/></clipPath><linearGradient id="N" x2="-61.048" x1="45.012" y1="-80.553" y2="131.575" xlink:href="#Cf"><stop stop-color="#db6e03" offset="0"/><stop stop-color="#da7203" offset="1"/></linearGradient><clipPath id="O"><path d="M139.25 2.96L-29.4-7.114 419.15-17z"/></clipPath><linearGradient id="P" x2="20.28" x1="464.6" y1="-6784.047" y2="6767.591" xlink:href="#Cf"><stop stop-color="#d87404" offset="0"/><stop stop-color="#d97304" offset="1"/></linearGradient><clipPath id="Q"><path d="M677.52 177.6L652.4-7.02 526.8 177.6z"/></clipPath><linearGradient id="R" x2="543.5" x1="726.31" y1="7.971" y2="215.481" xlink:href="#Cf"><stop stop-color="#ea8200" offset="0"/><stop stop-color="#e67d02" offset="1"/></linearGradient><clipPath id="S"><path d="M526.8 177.6L419.15-17l-17.943 174.64z"/></clipPath><linearGradient id="T" x2="393.76" x1="561.67" y1="-.288" y2="150.408" xlink:href="#Cf"><stop stop-color="#e78102" offset="0"/><stop stop-color="#dc7406" offset="1"/></linearGradient><clipPath id="U"><path d="m114.13 821.26-104.07-64.865-3.588 89.813z"/></clipPath><linearGradient id="V" x2="-13.55" x1="106.41" y1="698.271" y2="898.205" xlink:href="#Cf"><stop stop-color="#e89101" offset="0"/><stop stop-color="#eb9801" offset="1"/></linearGradient><clipPath id="W"><path d="M10.06 756.4l-3.588 89.813h-35.886z"/></clipPath><linearGradient id="X" x2="-28.818" x1="14.263" y1="826.43" y2="840.79" xlink:href="#Cf"><stop stop-color="#f09903" offset="0"/><stop stop-color="#e69104" offset="1"/></linearGradient><clipPath id="Y"><path d="M10.06 756.4L-11.47 526.87-29.413 846.2z"/></clipPath><linearGradient id="Z" x2="-25.82" x1="17.393" y1="672.751" y2="677.299" xlink:href="#Cf"><stop stop-color="#e28c02" offset="0"/><stop stop-color="#d47c03" offset="1"/></linearGradient><clipPath id="a"><path d="M490.92 811.28l-376.8 9.98 197.37-44.906z"/></clipPath><linearGradient id="b" x2="97.38" x1="570.68" y1="-1961.381" y2="3560.53" xlink:href="#Cf"><stop stop-color="#fbc415" offset="0"/><stop stop-color="#f4a90b" offset="1"/></linearGradient><clipPath id="c"><path d="M257.67 422.1l-93.3 109.77 154.3 44.907z"/></clipPath><linearGradient id="d" x2="176.61" x1="363.46" y1="382.945" y2="642.135" xlink:href="#Cf"><stop stop-color="#ed8d01" offset="0"/><stop stop-color="#e49102" offset="1"/></linearGradient><clipPath id="e"><path d="m808.15 584.68-162.92-12.906 17.943 119.75z"/></clipPath><linearGradient id="f" x2="602.12" x1="769.88" y1="484.62" y2="736.26" xlink:href="#Cf"><stop stop-color="#fcb715" offset="0"/><stop stop-color="#fbb503" offset="1"/></linearGradient><clipPath id="g"><path d="M268.43 227.5l-10.767 194.6-93.3-94.803z"/></clipPath><linearGradient id="h" x2="176.6" x1="294.44" y1="297.881" y2="385.509" xlink:href="#Cf"><stop stop-color="#eb9607" offset="0"/><stop stop-color="#eb8e03" offset="1"/></linearGradient><clipPath id="i"><path d="m268.43 227.49-86.124-64.865-17.944 164.66z"/></clipPath><linearGradient id="j" x2="136.81" x1="256.21" y1="175.462" y2="280.388" xlink:href="#Cf"><stop stop-color="#e98f07" offset="0"/><stop stop-color="#e58404" offset="1"/></linearGradient><clipPath id="k"><path d="M182.3 162.63L63.9 217.517l100.48 109.77z"/></clipPath><linearGradient id="l" x2="66.15" x1="203.1" y1="183.42" y2="320.37" xlink:href="#Cf"><stop stop-color="#d87a07" offset="0"/><stop stop-color="#dc7c04" offset="1"/></linearGradient><clipPath id="m"><path d="m490.92 811.28-179.43-34.927 111.24-104.78z"/></clipPath><linearGradient id="n" x2="325.77" x1="543.54" y1="559.426" y2="948.304" xlink:href="#Cf"><stop stop-color="#fcd535" offset="0"/><stop stop-color="#fccf32" offset="1"/></linearGradient><clipPath id="o"><path d="m447.86 526.87-129.19 49.897 104.07 94.802z"/></clipPath><linearGradient id="p" x2="317.42" x1="469.67" y1="511.246" y2="700.254" xlink:href="#Cf"><stop stop-color="#f9ae0a" offset="0"/><stop stop-color="#fabc17" offset="1"/></linearGradient><clipPath id="q"><path d="m318.67 576.77-7.177 199.58 111.24-104.78z"/></clipPath><linearGradient id="r" x2="282.1" x1="408.3" y1="608.158" y2="705.962" xlink:href="#Cf"><stop stop-color="#f4b506" offset="0"/><stop stop-color="#f8c619" offset="1"/></linearGradient><clipPath id="s"><path d="m419.15-17-17.943 174.64-114.83-154.68z"/></clipPath><linearGradient id="t" x2="254.45" x1="432.89" y1="-13.919" y2="174.711" xlink:href="#Cf"><stop stop-color="#de7406" offset="0"/><stop stop-color="#e06b07" offset="1"/></linearGradient><clipPath id="u"><path d="M419.15-17L139.25 2.96h147.13z"/></clipPath><linearGradient id="v" x2="148.74" x1="483.29" y1="-3266.885" y2="3256.616" xlink:href="#Cf"><stop stop-color="#d76a09" offset="0"/><stop stop-color="#d56407" offset="1"/></linearGradient><clipPath id="w"><path d="m268.43 227.49-86.124-64.865 104.06-159.67z"/></clipPath><linearGradient id="x" x2="196.83" x1="317.78" y1="106.557" y2="184.503" xlink:href="#Cf"><stop stop-color="#db8909" offset="0"/><stop stop-color="#d47208" offset="1"/></linearGradient><clipPath id="y"><path d="M182.3 162.63L139.247 2.96h147.13z"/></clipPath><linearGradient id="z" x2="93.92" x1="274.69" y1="-51.416" y2="180.194" xlink:href="#Cf"><stop stop-color="#d5760a" offset="0"/><stop stop-color="#d16709" offset="1"/></linearGradient><clipPath id="AA"><path d="m318.67 576.77-7.177 199.58-82.535-94.803z"/></clipPath><linearGradient id="AB" x2="240.23" x1="342" y1="663.691" y2="727.299" xlink:href="#Cf"><stop stop-color="#fab602" offset="0"/><stop stop-color="#fbbe05" offset="1"/></linearGradient><clipPath id="AC"><path d="M318.67 576.77l-154.3-44.907 64.594 149.7z"/></clipPath><linearGradient id="AD" x2="119.93" x1="307.15" y1="460.717" y2="729.063" xlink:href="#Cf"><stop stop-color="#f6af01" offset="0"/><stop stop-color="#e6a601" offset="1"/></linearGradient><clipPath id="AE"><path d="m311.5 776.35-197.37 44.906 114.83-139.71z"/></clipPath><linearGradient id="AF" x2="101.57" x1="347.67" y1="510.475" y2="993.875" xlink:href="#Cf"><stop stop-color="#fbc60a" offset="0"/><stop stop-color="#f3b104" offset="1"/></linearGradient><clipPath id="AG"><path d="M677.52 177.6H526.8l25.12 74.843z"/></clipPath><linearGradient id="AH" x2="478.02" x1="660.83" y1="-51.646" y2="460.216" xlink:href="#Cf"><stop stop-color="#ef8602" offset="0"/><stop stop-color="#f48602" offset="1"/></linearGradient><clipPath id="AI"><path d="M526.8 177.6L419.15-17l125.6 14.97z"/></clipPath><linearGradient id="AJ" x2="384.2" x1="552.25" y1="10.175" y2="160.986" xlink:href="#Cf"><stop stop-color="#ed8005" offset="0"/><stop stop-color="#e07805" offset="1"/></linearGradient><clipPath id="AK"><path d="M652.4-7.02L526.8 177.6 544.742-2.03z"/></clipPath><linearGradient id="AL" x2="488.83" x1="638.95" y1="-12.916" y2="129.088" xlink:href="#Cf"><stop stop-color="#e67e03" offset="0"/><stop stop-color="#f28602" offset="1"/></linearGradient><clipPath id="AM"><path d="m447.86 526.87-43.062-194.6 143.54 119.75z"/></clipPath><linearGradient id="AN" x2="368.58" x1="532" y1="334.018" y2="501.622" xlink:href="#Cf"><stop stop-color="#f49f09" offset="0"/><stop stop-color="#f28b07" offset="1"/></linearGradient><clipPath id="AO"><path d="m821.06 257.43-68.18 129.73 104.07-9.978z"/></clipPath><linearGradient id="AP" x2="756.95" x1="885.57" y1="261.432" y2="404.898" xlink:href="#Cf"><stop stop-color="#f19902" offset="0"/><stop stop-color="#faac09" offset="1"/></linearGradient><clipPath id="AQ"><path d="m808.15 584.68-55.263-197.52 104.07-9.978z"/></clipPath><linearGradient id="AR" x2="747.04" x1="858.15" y1="415.194" y2="495.746" xlink:href="#Cf"><stop stop-color="#f8ab13" offset="0"/><stop stop-color="#f7a708" offset="1"/></linearGradient><clipPath id="AS"><path d="M824.15-11.443L652.4-7.02 795.2 122.7z"/></clipPath><linearGradient id="AT" x2="596.51" x1="882.68" y1="-284.649" y2="386.773" xlink:href="#Cf"><stop stop-color="#c56205" offset="0"/><stop stop-color="#cb6403" offset="1"/></linearGradient><clipPath id="AU"><path d="M677.52 177.6L652.4-7.02 795.18 122.7z"/></clipPath><linearGradient id="AV" x2="626.07" x1="781.77" y1="-.09" y2="155.61" xlink:href="#Cf"><stop stop-color="#e77f03" offset="0"/><stop stop-color="#d77203" offset="1"/></linearGradient><clipPath id="AW"><path d="M821.06 257.43L795.175 122.7 731.35 277.4z"/></clipPath><linearGradient id="AX" x2="734.48" x1="852.34" y1="160.734" y2="255.786" xlink:href="#Cf"><stop stop-color="#eb8200" offset="0"/><stop stop-color="#db7301" offset="1"/></linearGradient><clipPath id="AY"><path d="m821.06 257.43-68.18 129.73-21.531-109.77z"/></clipPath><linearGradient id="AZ" x2="707.95" x1="817.56" y1="258.085" y2="363.475" xlink:href="#Cf"><stop stop-color="#ee9002" offset="0"/><stop stop-color="#ea9103" offset="1"/></linearGradient><clipPath id="Aa"><path d="M795.18 122.7l-117.66 54.886 53.83 99.793z"/></clipPath><linearGradient id="Ab" x2="658.16" x1="800.5" y1="132.873" y2="270.617" xlink:href="#Cf"><stop stop-color="#d47201" offset="0"/><stop stop-color="#db7901" offset="1"/></linearGradient><clipPath id="Ac"><path d="m677.52 177.6-125.6 74.843 179.43 24.95z"/></clipPath><linearGradient id="Ad" x2="570" x1="785.66" y1="-31.43" y2="507.732" xlink:href="#Cf"><stop stop-color="#ee8202" offset="0"/><stop stop-color="#e87d02" offset="1"/></linearGradient><clipPath id="Ae"><path d="m533.98 741.42-43.061 69.855-35.885-164.66z"/></clipPath><linearGradient id="Af" x2="433.514" x1="525.94" y1="688.082" y2="749.698" xlink:href="#Cf"><stop stop-color="#fcd64d" offset="0"/><stop stop-color="#fcd437" offset="1"/></linearGradient><clipPath id="Ag"><path d="m490.92 811.28-68.183-139.71 32.298-24.948z"/></clipPath><linearGradient id="Ah" x2="413.781" x1="508.02" y1="707.251" y2="761.509" xlink:href="#Cf"><stop stop-color="#fbd331" offset="0"/><stop stop-color="#fdd742" offset="1"/></linearGradient><clipPath id="Ai"><path d="m447.86 526.87-25.12 144.7 32.298-24.948z"/></clipPath><linearGradient id="Aj" x2="423.91" x1="463.3" y1="605.858" y2="618.082" xlink:href="#Cf"><stop stop-color="#f9b71a" offset="0"/><stop stop-color="#fcd137" offset="1"/></linearGradient><clipPath id="Ak"><path d="m447.86 526.87-43.062-194.6-96.89 29.938z"/></clipPath><linearGradient id="Al" x2="295.96" x1="475.04" y1="347.44" y2="526.52" xlink:href="#Cf"><stop stop-color="#f8a90c" offset="0"/><stop stop-color="#f39309" offset="1"/></linearGradient><clipPath id="Am"><path d="m447.86 526.87-129.19 49.897-10.766-214.56z"/></clipPath><linearGradient id="An" x2="282.19" x1="441.27" y1="390.232" y2="534.518" xlink:href="#Cf"><stop stop-color="#f09b06" offset="0"/><stop stop-color="#f09904" offset="1"/></linearGradient><clipPath id="Ao"><path d="M318.67 576.77L257.665 422.1l50.24-59.876z"/></clipPath><linearGradient id="Ap" x2="263.914" x1="331.08" y1="462.558" y2="489.112" xlink:href="#Cf"><stop stop-color="#f09e01" offset="0"/><stop stop-color="#ed9202" offset="1"/></linearGradient><clipPath id="Aq"><path d="M268.43 227.5l-10.767 194.6 50.24-59.876z"/></clipPath><linearGradient id="Ar" x2="250.088" x1="311.74" y1="304.014" y2="326.146" xlink:href="#Cf"><stop stop-color="#ee9907" offset="0"/><stop stop-color="#f29705" offset="1"/></linearGradient><clipPath id="As"><path d="M257.67 422.1l-93.3 109.77-39.472-59.875z"/></clipPath><linearGradient id="At" x2="105.04" x1="268.26" y1="339.634" y2="614.137" xlink:href="#Cf"><stop stop-color="#ee9100" offset="0"/><stop stop-color="#e28401" offset="1"/></linearGradient><clipPath id="Au"><path d="M257.67 422.1l-93.3-94.803-39.472 144.7z"/></clipPath><linearGradient id="Av" x2="105.91" x1="272.54" y1="285.46" y2="498.06" xlink:href="#Cf"><stop stop-color="#e78f00" offset="0"/><stop stop-color="#e78301" offset="1"/></linearGradient><clipPath id="Aw"><path d="m164.37 327.28-78.946 109.77 39.474 34.928z"/></clipPath><linearGradient id="Ax" x2="89.695" x1="181.94" y1="376.282" y2="446.258" xlink:href="#Cf"><stop stop-color="#e38802" offset="0"/><stop stop-color="#e58202" offset="1"/></linearGradient><clipPath id="Ay"><path d="m164.37 531.86-39.472-59.875-75.359 89.813z"/></clipPath><linearGradient id="Az" x2="43.79" x1="185.69" y1="392.569" y2="644.831" xlink:href="#Cf"><stop stop-color="#c97a02" offset="0"/><stop stop-color="#d26e02" offset="1"/></linearGradient><clipPath id="BA"><path d="m124.89 471.98-39.474-34.928-35.885 124.74z"/></clipPath><linearGradient id="BB" x2="32.306" x1="119.98" y1="452.291" y2="525.939" xlink:href="#Cf"><stop stop-color="#e77c04" offset="0"/><stop stop-color="#d27002" offset="1"/></linearGradient><clipPath id="BC"><path d="M85.42 437.06l-96.9 89.814L49.535 561.8z"/></clipPath><linearGradient id="BD" x2="-2.58" x1="110.14" y1="451.256" y2="572.994" xlink:href="#Cf"><stop stop-color="#d77b02" offset="0"/><stop stop-color="#c86b03" offset="1"/></linearGradient><clipPath id="BE"><path d="M10.06 756.4L-11.47 526.87l61.006 34.927z"/></clipPath><linearGradient id="BF" x2="-29.653" x1="44.856" y1="605.417" y2="632.953" xlink:href="#Cf"><stop stop-color="#e38b00" offset="0"/><stop stop-color="#c96b02" offset="1"/></linearGradient><clipPath id="BG"><path d="m573.46 412.11-25.12 39.915 25.12 114.76z"/></clipPath><linearGradient id="BH" x2="550.407" x1="578.17" y1="491.3" y2="497.57" xlink:href="#Cf"><stop stop-color="#f99411" offset="0"/><stop stop-color="#f6930d" offset="1"/></linearGradient><clipPath id="BI"><path d="m548.34 452.02-100.48 74.846 125.6 39.917z"/></clipPath><linearGradient id="BJ" x2="465.46" x1="613.09" y1="411.288" y2="635.945" xlink:href="#Cf"><stop stop-color="#f5a30d" offset="0"/><stop stop-color="#f5a912" offset="1"/></linearGradient><clipPath id="BK"><path d="m533.98 741.42-78.946-94.803 118.42-79.834z"/></clipPath><linearGradient id="BL" x2="453.88" x1="593.98" y1="596.787" y2="728.883" xlink:href="#Cf"><stop stop-color="#fbd54b" offset="0"/><stop stop-color="#f8c435" offset="1"/></linearGradient><clipPath id="BM"><path d="m455.04 646.62-7.178-119.75 125.6 39.917z"/></clipPath><linearGradient id="BN" x2="405.93" x1="551.84" y1="462.25" y2="675.04" xlink:href="#Cf"><stop stop-color="#fdd73f" offset="0"/><stop stop-color="#f8b41e" offset="1"/></linearGradient><clipPath id="BO"><path d="m663.17 691.53-129.19 49.896 39.475-174.64z"/></clipPath><linearGradient id="BP" x2="518.46" x1="686.29" y1="558.333" y2="730.967" xlink:href="#Cf"><stop stop-color="#fabc20" offset="0"/><stop stop-color="#f8c037" offset="1"/></linearGradient><clipPath id="BQ"><path d="M663.17 691.53l-17.943-119.75-71.77-5z"/></clipPath><linearGradient id="BR" x2="542.58" x1="676.55" y1="570.92" y2="704.89" xlink:href="#Cf"><stop stop-color="#f8b308" offset="0"/><stop stop-color="#f6b20d" offset="1"/></linearGradient><clipPath id="BS"><path d="M645.23 571.78L573.46 412.1V566.8z"/></clipPath><linearGradient id="BT" x2="566.466" x1="666.25" y1="449.589" y2="511.951" xlink:href="#Cf"><stop stop-color="#f8a205" offset="0"/><stop stop-color="#f69711" offset="1"/></linearGradient><clipPath id="BU"><path d="M533.98 741.42l-43.06 69.855 327.22-58.35z"/></clipPath><linearGradient id="BV" x2="432.48" x1="783.84" y1="-66.621" y2="1589.811" xlink:href="#Cf"><stop stop-color="#fcd658" offset="0"/><stop stop-color="#fbc228" offset="1"/></linearGradient><clipPath id="BW"><path d="M795.94 816.27l-305.02-5 327.22-58.35z"/></clipPath><linearGradient id="BX" x2="524.97" x1="986.58" y1="-992.237" y2="2574.735" xlink:href="#Cf"><stop stop-color="#eaaa15" offset="0"/><stop stop-color="#f5b815" offset="1"/></linearGradient><clipPath id="BY"><path d="m808.15 584.68-144.98 106.84 154.98 61.4z"/></clipPath><linearGradient id="BZ" x2="687.42" x1="832.02" y1="638.91" y2="760.06" xlink:href="#Cf"><stop stop-color="#fcb114" offset="0"/><stop stop-color="#fba802" offset="1"/></linearGradient><clipPath id="Ba"><path d="m663.17 691.53-129.19 49.896 284.16 11.504z"/></clipPath><linearGradient id="Bb" x2="567.09" x1="800" y1="287.84" y2="1186.223" xlink:href="#Cf"><stop stop-color="#f9b515" offset="0"/><stop stop-color="#fabd28" offset="1"/></linearGradient><clipPath id="Bc"><path d="M164.37 327.28L85.424 437.05 67.48 317.3z"/></clipPath><linearGradient id="Bd" x2="36.43" x1="153.35" y1="295.028" y2="426.562" xlink:href="#Cf"><stop stop-color="#df8202" offset="0"/><stop stop-color="#c97202" offset="1"/></linearGradient><clipPath id="Be"><path d="M164.37 327.28L63.9 217.5l3.588 99.792z"/></clipPath><linearGradient id="Bf" x2="53.26" x1="194.58" y1="174.781" y2="354.639" xlink:href="#Cf"><stop stop-color="#df8304" offset="0"/><stop stop-color="#c97304" offset="1"/></linearGradient><clipPath id="Bg"><path d="m85.42 437.06-96.891 89.814 78.948-209.56z"/></clipPath><linearGradient id="Bh" x2="-15.61" x1="102.12" y1="390.959" y2="466.641" xlink:href="#Cf"><stop stop-color="#d97901" offset="0"/><stop stop-color="#c16903" offset="1"/></linearGradient><clipPath id="Bi"><path d="M63.9 217.5l-89.713 29.937 93.3 69.855z"/></clipPath><linearGradient id="Bj" x2="-15.463" x1="86.497" y1="204.796" y2="337.338" xlink:href="#Cf"><stop stop-color="#dd8306" offset="0"/><stop stop-color="#c06c04" offset="1"/></linearGradient><clipPath id="Bk"><path d="M-11.47 526.87l-14.353-279.42 93.3 69.855z"/></clipPath><linearGradient id="Bl" x2="-55.985" x1="54.435" y1="323.026" y2="374.294" xlink:href="#Cf"><stop stop-color="#cc6d03" offset="0"/><stop stop-color="#bb6302" offset="1"/></linearGradient><clipPath id="Bm"><path d="m228.96 681.55-64.594-149.69-61.004 129.73z"/></clipPath><linearGradient id="Bn" x2="107.5" x1="264.52" y1="524.271" y2="707.459" xlink:href="#Cf"><stop stop-color="#f2b004" offset="0"/><stop stop-color="#e19103" offset="1"/></linearGradient><clipPath id="Bo"><path d="m228.96 681.55-114.83 139.71-10.765-159.67z"/></clipPath><linearGradient id="Bp" x2="61.34" x1="210.92" y1="634.579" y2="798.181" xlink:href="#Cf"><stop stop-color="#fac101" offset="0"/><stop stop-color="#f19e01" offset="1"/></linearGradient><clipPath id="Bq"><path d="m164.37 531.86-114.83 29.938 53.827 99.793z"/></clipPath><linearGradient id="Br" x2="25.43" x1="169.55" y1="505.913" y2="683.287" xlink:href="#Cf"><stop stop-color="#d28606" offset="0"/><stop stop-color="#d97c04" offset="1"/></linearGradient><clipPath id="Bs"><path d="M114.13 821.26L10.06 756.395l93.3-94.802z"/></clipPath><linearGradient id="Bt" x2="26.32" x1="146.58" y1="707.417" y2="816.403" xlink:href="#Cf"><stop stop-color="#ec9502" offset="0"/><stop stop-color="#f29a01" offset="1"/></linearGradient><clipPath id="Bu"><path d="M49.535 561.8L10.06 756.4l93.3-94.802z"/></clipPath><linearGradient id="Bv" x2="-5.03" x1="108.75" y1="610.598" y2="686.452" xlink:href="#Cf"><stop stop-color="#d96501" offset="0"/><stop stop-color="#f38901" offset="1"/></linearGradient><clipPath id="Bw"><path d="M573.46 412.1l-21.53-159.67L681.1 427.07z"/></clipPath><linearGradient id="Bx" x2="533.72" x1="724.6" y1="229.324" y2="425.656" xlink:href="#Cf"><stop stop-color="#f89c0c" offset="0"/><stop stop-color="#eb8701" offset="1"/></linearGradient><clipPath id="By"><path d="m808.15 584.68-55.263-197.52-71.772 39.918z"/></clipPath><linearGradient id="Bz" x2="699.95" x1="801.08" y1="462.739" y2="531.931" xlink:href="#Cf"><stop stop-color="#f9b216" offset="0"/><stop stop-color="#ee9b04" offset="1"/></linearGradient><clipPath id="CA"><path d="m808.15 584.68-162.92-12.906 35.884-144.7z"/></clipPath><linearGradient id="CB" x2="652.65" x1="821.02" y1="411.394" y2="613.436" xlink:href="#Cf"><stop stop-color="#f6b215" offset="0"/><stop stop-color="#eda203" offset="1"/></linearGradient><clipPath id="CC"><path d="M752.88 387.16L731.35 277.4 681.1 427.1z"/></clipPath><linearGradient id="CD" x2="680.002" x1="768.26" y1="329.806" y2="388.644" xlink:href="#Cf"><stop stop-color="#f4a102" offset="0"/><stop stop-color="#e18402" offset="1"/></linearGradient><clipPath id="CE"><path d="M731.35 277.4l-179.43-24.95L681.1 427.08z"/></clipPath><linearGradient id="CF" x2="502.87" x1="735.1" y1="172.22" y2="503.98" xlink:href="#Cf"><stop stop-color="#e69304" offset="0"/><stop stop-color="#ec8f02" offset="1"/></linearGradient><clipPath id="CG"><path d="M645.23 571.78L573.46 412.1l107.65 14.97z"/></clipPath><linearGradient id="CH" x2="543.78" x1="682.17" y1="423.242" y2="552.988" xlink:href="#Cf"><stop stop-color="#f8ae02" offset="0"/><stop stop-color="#ef9409" offset="1"/></linearGradient><clipPath id="CI"><path d="m404.8 332.27-3.588-174.64-86.124 64.865z"/></clipPath><linearGradient id="CJ" x2="325.847" x1="425.33" y1="219.971" y2="291.029" xlink:href="#Cf"><stop stop-color="#dd750a" offset="0"/><stop stop-color="#da7208" offset="1"/></linearGradient><clipPath id="CK"><path d="M404.8 332.27l-96.9 29.938 7.178-139.7z"/></clipPath><linearGradient id="CL" x2="293.03" x1="409.88" y1="229.823" y2="342.497" xlink:href="#Cf"><stop stop-color="#f38c09" offset="0"/><stop stop-color="#ec8d07" offset="1"/></linearGradient><clipPath id="CM"><path d="M401.2 157.64L286.38 2.96l28.7 219.54z"/></clipPath><linearGradient id="CN" x2="261.83" x1="389.33" y1="59.028" y2="151.752" xlink:href="#Cf"><stop stop-color="#d46409" offset="0"/><stop stop-color="#cf6207" offset="1"/></linearGradient><clipPath id="CO"><path d="M307.9 362.2l-39.462-134.7 46.65-5z"/></clipPath><linearGradient id="CP" x2="255.985" x1="318.42" y1="282.441" y2="311.429" xlink:href="#Cf"><stop stop-color="#ec9705" offset="0"/><stop stop-color="#e38c05" offset="1"/></linearGradient><clipPath id="CQ"><path d="M286.38 2.96L268.44 227.5l46.65-5z"/></clipPath><linearGradient id="CR" x2="267.989" x1="327.79" y1="113.901" y2="131.177" xlink:href="#Cf"><stop stop-color="#d57307" offset="0"/><stop stop-color="#df8705" offset="1"/></linearGradient><clipPath id="CS"><path d="M573.46 412.1l-21.53-159.67-61.005 34.928z"/></clipPath><linearGradient id="CT" x2="492.377" x1="589.71" y1="302.451" y2="372.409" xlink:href="#Cf"><stop stop-color="#f2910c" offset="0"/><stop stop-color="#ee8705" offset="1"/></linearGradient><clipPath id="CU"><path d="m573.46 412.11-25.12 39.915-57.416-164.66z"/></clipPath><linearGradient id="CV" x2="468.81" x1="573.68" y1="330.793" y2="403.887" xlink:href="#Cf"><stop stop-color="#f59613" offset="0"/><stop stop-color="#f3910a" offset="1"/></linearGradient><clipPath id="CW"><path d="m551.93 252.44-25.12-74.843-35.885 109.77z"/></clipPath><linearGradient id="CX" x2="487.178" x1="563.18" y1="203.983" y2="262.712" xlink:href="#Cf"><stop stop-color="#e97f03" offset="0"/><stop stop-color="#ee8a06" offset="1"/></linearGradient><clipPath id="CY"><path d="M548.34 452.02L404.8 332.27l86.125-44.906z"/></clipPath><linearGradient id="CZ" x2="416.92" x1="579.83" y1="275.396" y2="472.864" xlink:href="#Cf"><stop stop-color="#f7900b" offset="0"/><stop stop-color="#f38a0c" offset="1"/></linearGradient><clipPath id="Ca"><path d="M526.8 177.6l-125.6-19.96 89.713 129.73z"/></clipPath><linearGradient id="Cb" x2="366.81" x1="529.08" y1="111.907" y2="330.353" xlink:href="#Cf"><stop stop-color="#eb8c03" offset="0"/><stop stop-color="#e98809" offset="1"/></linearGradient><clipPath id="Cc"><path d="m404.8 332.27-3.588-174.64 89.713 129.73z"/></clipPath><linearGradient id="Cd" x2="384.231" x1="483.77" y1="203.894" y2="274.996" xlink:href="#Cf"><stop stop-color="#ed7f07" offset="0"/><stop stop-color="#eb8309" offset="1"/></linearGradient><filter  color-interpolation-filters="sRGB"><feColorMatrix type="hueRotate" values="168"/><feColorMatrix type="saturate" values="0.123656"/></filter><linearGradient id="Cf" gradientUnits="userSpaceOnUse"/><filter id="Cg" color-interpolation-filters="sRGB"><feColorMatrix values="0.9677 0 0 0.0846323 0.01615 0 0.9677 0 0.0846323 0.01615 0 0 0.9677 0.0846323 0.01615 0 0 0 1 0" result="A"/><feColorMatrix values="0 0 0 -1 0 0 0 0 -1 0 0 0 0 -1 0 0 0 0 1 0"/><feColorMatrix values="1 0 0 0 0 0 1 0 0 0 0 0 1 0 0 0 0 0 1 1 " in="A"/><feColorMatrix type="hueRotate" values="0" result="C"/><feColorMatrix values="-1 0 0 0 1 0 -1 0 0 1 0 0 -1 0 1 0 0 0 1 0 "/><feBlend in2="C" mode="lighten"/><feBlend mode="multiply"/><feComposite in2="A" operator="in" result="A"/><feColorMatrix values="0 0 0 -1 0 0 0 0 -1 0 0 0 0 -1 0 0 0 0 1 0"/><feColorMatrix values="2.15 1.02 3.49 -4.56989 0 2.15 1.02 3.49 -4.56989 0 2.15 1.02 3.49 -4.56989 0 0 0 0 1 0 " in="A"/></filter></defs><g transform="matrix(-1.3333 0 0 1.3333 1070.297 8.224148)" filter="url(#Cg)" opacity=".086"><g clip-path="url(#A)" transform="matrix(1.068 0 0 1.068 -3.6722 -14.162)"><path d="M182.3 162.63L139.247 2.96 63.9 32.897z" fill="url(#B)"/></g><g clip-path="url(#C)" transform="matrix(1.068 0 0 1.068 -3.6722 -17.046)"><path d="M182.3 162.63L63.9 32.9v184.62z" fill="url(#D)"/></g><g clip-path="url(#E)" transform="matrix(1.068 0 0 1.068 2.6723 -17.046)"><path d="M63.89 32.896l-68.182 124.74 68.182 59.876z" fill="url(#F)"/></g><g clip-path="url(#G)" transform="matrix(1.068 0 0 1.068 .96417 -9.4087)"><path d="M139.25 2.96L63.892 32.896l-93.302-40z" fill="url(#H)"/></g><g clip-path="url(#I)" transform="matrix(1.068 0 0 1.068 3.4043 -22.305)"><path d="M63.9 217.5l-68.182-59.876-21.53 89.813z" fill="url(#J)"/></g><g clip-path="url(#K)" transform="matrix(1.068 0 0 1.068 3.5263 -15.01)"><path d="M63.89 32.896l-68.182 124.74-25.12-89.814z" fill="url(#L)"/></g><g clip-path="url(#M)" transform="matrix(1.068 0 0 1.068 3.5263 -10.596)"><path d="M63.9 32.896l-93.302-40v74.937z" fill="url(#N)"/></g><g clip-path="url(#O)" transform="matrix(1.068 0 0 1.068 -8.5526 -8.0547)"><path d="M139.25 2.96L-29.4-7.114 419.15-17z" fill="url(#P)"/></g><g clip-path="url(#Q)" transform="matrix(1.068 0 0 1.068 -36.249 -14.332)"><path d="M677.52 177.6L652.4-7.02 526.8 177.6z" fill="url(#R)"/></g><g clip-path="url(#S)" transform="matrix(1.068 0 0 1.068 -26.854 -13.992)"><path d="M526.8 177.6L419.15-17l-17.943 174.64z" fill="url(#T)"/></g><g clip-path="url(#U)" transform="matrix(1.068 0 0 1.068 .59813 -63.02)"><path d="M114.13 821.26L10.06 756.395l-3.588 89.813z" fill="url(#V)"/></g><g clip-path="url(#W)" transform="matrix(1.068 0 0 1.068 5.3565 -63.02)"><path d="M10.06 756.4l-3.588 89.813h-35.886z" fill="url(#X)"/></g><g clip-path="url(#Y)" transform="matrix(1.068 0 0 1.068 5.3565 -55.217)"><path d="M10.06 756.4l-21.53-229.53-17.943 319.33z" fill="url(#Z)"/></g><g clip-path="url(#a)" transform="matrix(1.068 0 0 1.068 -15.873 -62.851)"><path d="M490.92 811.28l-376.8 9.98 197.37-44.906z" fill="url(#b)"/></g><g clip-path="url(#c)" transform="matrix(1.068 0 0 1.068 -11.725 -42.493)"><path d="M257.67 422.1l-93.3 109.77 154.3 44.907z" fill="url(#d)"/></g><g clip-path="url(#e)" transform="matrix(1.068 0 0 1.068 -44.716 -51.484)"><path d="M808.15 584.68l-162.92-12.906 17.943 119.75z" fill="url(#f)"/></g><g clip-path="url(#g)" transform="matrix(1.068 0 0 1.068 -10.017 -30.618)"><path d="M268.43 227.5l-10.767 194.6-93.3-94.803z" fill="url(#h)"/></g><g clip-path="url(#i)" transform="matrix(1.068 0 0 1.068 -10.017 -25.189)"><path d="M268.43 227.5l-86.124-64.865-17.944 164.66z" fill="url(#j)"/></g><g clip-path="url(#k)" transform="matrix(1.068 0 0 1.068 -3.6722 -25.189)"><path d="M182.3 162.63L63.9 217.517l100.48 109.77z" fill="url(#l)"/></g><g clip-path="url(#m)" transform="matrix(1.068 0 0 1.068 -22.584 -58.949)"><path d="M490.92 811.28L311.5 776.353l111.24-104.78z" fill="url(#n)"/></g><g clip-path="url(#o)" transform="matrix(1.068 0 0 1.068 -21.363 -49.279)"><path d="M447.86 526.87l-129.2 49.897 104.07 94.802z" fill="url(#p)"/></g><g clip-path="url(#q)" transform="matrix(1.068 0 0 1.068 -20.265 -54.538)"><path d="M318.67 576.77l-7.177 199.58 111.24-104.78z" fill="url(#r)"/></g><g clip-path="url(#s)" transform="matrix(1.068 0 0 1.068 -19.289 -13.314)"><path d="M419.15-17l-17.943 174.64L286.377 2.96z" fill="url(#t)"/></g><g clip-path="url(#u)" transform="matrix(1.068 0 0 1.068 -14.287 -8.0547)"><path d="M419.15-17L139.25 2.96h147.13z" fill="url(#v)"/></g><g clip-path="url(#w)" transform="matrix(1.068 0 0 1.068 -11.237 -16.367)"><path d="M268.43 227.5l-86.124-64.865 104.06-159.67z" fill="url(#x)"/></g><g clip-path="url(#y)" transform="matrix(1.068 0 0 1.068 -9.7726 -14.162)"><path d="M182.3 162.63L139.247 2.96h147.13z" fill="url(#z)"/></g><g clip-path="url(#AA)" transform="matrix(1.068 0 0 1.068 -13.921 -54.538)"><path d="M318.67 576.77l-7.177 199.58-82.535-94.803z" fill="url(#AB)"/></g><g clip-path="url(#AC)" transform="matrix(1.068 0 0 1.068 -11.725 -49.788)"><path d="M318.67 576.77l-154.3-44.907 64.594 149.7z" fill="url(#AD)"/></g><g clip-path="url(#AE)" transform="matrix(1.068 0 0 1.068 -9.7726 -59.627)"><path d="M311.5 776.35l-197.37 44.906 114.83-139.7z" fill="url(#AF)"/></g><g clip-path="url(#AG)" transform="matrix(1.068 0 0 1.068 -36.249 -23.153)"><path d="M677.52 177.6H526.8l25.12 74.843z" fill="url(#AH)"/></g><g clip-path="url(#AI)" transform="matrix(1.068 0 0 1.068 -28.074 -12.492)"><path d="M526.8 177.6L419.15-17l125.6 14.97z" fill="url(#AJ)"/></g><g clip-path="url(#AK)" transform="matrix(1.068 0 0 1.068 -35.395 -12.832)"><path d="M652.4-7.02L526.8 177.6 544.742-2.03z" fill="url(#AL)"/></g><g clip-path="url(#AM)" transform="matrix(1.068 0 0 1.068 -27.708 -37.743)"><path d="M447.86 526.87l-43.062-194.6 143.54 119.75z" fill="url(#AN)"/></g><g clip-path="url(#AO)" transform="matrix(1.068 0 0 1.068 -50.036 -30.448)"><path d="M821.06 257.43l-68.18 129.73 104.07-9.978z" fill="url(#AP)"/></g><g clip-path="url(#AQ)" transform="matrix(1.068 0 0 1.068 -50.036 -41.235)"><path d="M808.15 584.68l-55.263-197.52 104.07-9.978z" fill="url(#AR)"/></g><g clip-path="url(#AS)" transform="matrix(1.068 0 0 1.068 -45.504 -12.315)"><path d="M824.15-11.443L652.4-7.02 795.2 122.7z" fill="url(#AT)"/></g><g clip-path="url(#AU)" transform="matrix(1.068 0 0 1.068 -44.519 -14.332)"><path d="M677.52 177.6L652.4-7.02 795.18 122.7z" fill="url(#AV)"/></g><g clip-path="url(#AW)" transform="matrix(1.068 0 0 1.068 -48.084 -22.135)"><path d="M821.06 257.43L795.175 122.7 731.35 277.4z" fill="url(#AX)"/></g><g clip-path="url(#AY)" transform="matrix(1.068 0 0 1.068 -48.084 -30.448)"><path d="M821.06 257.43l-68.18 129.73-21.53-109.77z" fill="url(#AZ)"/></g><g clip-path="url(#Aa)" transform="matrix(1.068 0 0 1.068 -45.373 -22.135)"><path d="M795.18 122.7l-117.66 54.886 53.83 99.793z" fill="url(#Ab)"/></g><g clip-path="url(#Ac)" transform="matrix(1.068 0 0 1.068 -38.933 -24.002)"><path d="M677.52 177.6l-125.6 74.843 179.43 24.95z" fill="url(#Ad)"/></g><g clip-path="url(#Ae)" transform="matrix(1.068 0 0 1.068 -28.928 -58.101)"><path d="M533.98 741.42l-43.06 69.855-35.885-164.66z" fill="url(#Af)"/></g><g clip-path="url(#Ag)" transform="matrix(1.068 0 0 1.068 -26.366 -58.101)"><path d="M490.92 811.28l-68.183-139.7 32.298-24.948z" fill="url(#Ah)"/></g><g clip-path="url(#Ai)" transform="matrix(1.068 0 0 1.068 -25.146 -49.279)"><path d="M447.86 526.87l-25.12 144.7 32.298-24.948z" fill="url(#Aj)"/></g><g clip-path="url(#Ak)" transform="matrix(1.068 0 0 1.068 -20.997 -37.743)"><path d="M447.86 526.87l-43.062-194.6-96.9 29.938z" fill="url(#Al)"/></g><g clip-path="url(#Am)" transform="matrix(1.068 0 0 1.068 -20.997 -40.457)"><path d="M447.86 526.87l-129.2 49.897-10.766-214.56z" fill="url(#An)"/></g><g clip-path="url(#Ao)" transform="matrix(1.068 0 0 1.068 -14.897 -40.457)"><path d="M318.67 576.77L257.665 422.1l50.24-59.876z" fill="url(#Ap)"/></g><g clip-path="url(#Aq)" transform="matrix(1.068 0 0 1.068 -14.531 -30.618)"><path d="M268.43 227.5l-10.767 194.6 50.24-59.876z" fill="url(#Ar)"/></g><g clip-path="url(#As)" transform="matrix(1.068 0 0 1.068 -8.3085 -40.966)"><path d="M257.67 422.1l-93.3 109.77-39.472-59.875z" fill="url(#At)"/></g><g clip-path="url(#Au)" transform="matrix(1.068 0 0 1.068 -8.3085 -35.707)"><path d="M257.67 422.1l-93.3-94.803-39.472 144.7z" fill="url(#Av)"/></g><g clip-path="url(#Aw)" transform="matrix(1.068 0 0 1.068 -3.7942 -35.707)"><path d="M164.37 327.28L85.424 437.05l39.474 34.928z" fill="url(#Ax)"/></g><g clip-path="url(#Ay)" transform="matrix(1.068 0 0 1.068 -2.5741 -43.681)"><path d="M164.37 531.86l-39.472-59.875-75.36 89.813z" fill="url(#Az)"/></g><g clip-path="url(#BA)" transform="matrix(1.068 0 0 1.068 -1.2321 -42.493)"><path d="M124.9 471.98l-39.474-34.928-35.885 124.74z" fill="url(#BB)"/></g><g clip-path="url(#BC)" transform="matrix(1.068 0 0 1.068 2.1843 -42.493)"><path d="M85.42 437.06l-96.9 89.814L49.535 561.8z" fill="url(#BD)"/></g><g clip-path="url(#BE)" transform="matrix(1.068 0 0 1.068 3.4044 -52.163)"><path d="M10.06 756.4l-21.53-229.53 61.006 34.927z" fill="url(#BF)"/></g><g clip-path="url(#BG)" transform="matrix(1.068 0 0 1.068 -33.442 -41.814)"><path d="M573.46 412.1l-25.12 39.915 25.12 114.76z" fill="url(#BH)"/></g><g clip-path="url(#BI)" transform="matrix(1.068 0 0 1.068 -30.026 -43.172)"><path d="M548.34 452.02l-100.48 74.846 125.6 39.917z" fill="url(#BJ)"/></g><g clip-path="url(#BK)" transform="matrix(1.068 0 0 1.068 -30.27 -53.011)"><path d="M533.98 741.42l-78.946-94.803 118.42-79.834z" fill="url(#BL)"/></g><g clip-path="url(#BM)" transform="matrix(1.0052 0 0 1.0052 .54666 -10.079)"><path d="M455.04 646.62l-7.178-119.75 125.6 39.917z" fill="url(#BN)"/></g><g clip-path="url(#BO)" transform="matrix(1.068 0 0 1.068 -36.005 -53.011)"><path d="M663.17 691.53l-129.2 49.896 39.475-174.64z" fill="url(#BP)"/></g><g clip-path="url(#BQ)" transform="matrix(1.068 0 0 1.068 -37.347 -51.315)"><path d="M663.17 691.53l-17.943-119.75-71.77-5z" fill="url(#BR)"/></g><g clip-path="url(#BS)" transform="matrix(1.068 0 0 1.068 -36.737 -41.984)"><path d="M645.23 571.78L573.46 412.1v154.7z" fill="url(#BT)"/></g><g clip-path="url(#BU)" transform="matrix(1.068 0 0 1.068 -39.81 -61.324)"><path d="M533.98 741.42l-43.06 69.855 327.22-58.35z" fill="url(#BV)"/></g><g clip-path="url(#BW)" transform="matrix(1.068 0 0 1.068 -42.81 -63.385)"><path d="M795.94 816.27l-305.02-5 327.22-58.35z" fill="url(#BX)"/></g><g clip-path="url(#BY)" transform="matrix(1.068 0 0 1.068 -45.666 -54.011)"><path d="M808.15 584.68L663.17 691.52l154.98 61.4z" fill="url(#BZ)"/></g><g clip-path="url(#Ba)" transform="matrix(1.068 0 0 1.068 -41.274 -57.644)"><path d="M663.17 691.53l-129.2 49.896 284.16 11.504z" fill="url(#Bb)"/></g><g clip-path="url(#Bc)" transform="matrix(1.068 0 0 1.068 -3.1841 -34.18)"><path d="M164.37 327.28L85.424 437.05 67.48 317.3z" fill="url(#Bd)"/></g><g clip-path="url(#Be)" transform="matrix(1.068 0 0 1.068 -3.1841 -31.18)"><path d="M164.37 327.28L63.9 217.5l3.588 99.792z" fill="url(#Bf)"/></g><g clip-path="url(#Bg)" transform="matrix(1.068 0 0 1.068 2.1843 -37.234)"><path d="M85.42 437.06l-96.89 89.814 78.948-209.56z" fill="url(#Bh)"/></g><g clip-path="url(#Bi)" transform="matrix(1.068 0 0 1.068 3.2823 -26.716)"><path d="M63.9 217.5l-89.713 29.937 93.3 69.855z" fill="url(#Bj)"/></g><g clip-path="url(#Bk)" transform="matrix(1.068 0 0 1.068 3.2823 -34.859)"><path d="M-11.47 526.87l-14.353-279.42 93.3 69.855z" fill="url(#Bl)"/></g><g clip-path="url(#Bm)" transform="matrix(1.068 0 0 1.068 -6.6004 -49.788)"><path d="M228.96 681.55l-64.594-149.7-61.004 129.73z" fill="url(#Bn)"/></g><g clip-path="url(#Bo)" transform="matrix(1.068 0 0 1.068 -6.6004 -58.949)"><path d="M228.96 681.55l-114.83 139.7-10.765-159.67z" fill="url(#Bp)"/></g><g clip-path="url(#Bq)" transform="matrix(1.068 0 0 1.068 -2.5741 -49.109)"><path d="M164.37 531.86L49.54 561.798l53.827 99.793z" fill="url(#Br)"/></g><g clip-path="url(#Bs)" transform="matrix(1.068 0 0 1.068 .47614 -58.949)"><path d="M114.13 821.26L10.06 756.395l93.3-94.802z" fill="url(#Bt)"/></g><g clip-path="url(#Bu)" transform="matrix(1.068 0 0 1.068 .84215 -53.351)"><path d="M49.535 561.8L10.06 756.4l93.3-94.802z" fill="url(#Bv)"/></g><g clip-path="url(#Bw)" transform="matrix(1.068 0 0 1.068 -35.725 -33.136)"><path d="M573.46 412.1l-21.53-159.67L681.1 427.07z" fill="url(#Bx)"/></g><g clip-path="url(#By)" transform="matrix(1.068 0 0 1.068 -45.936 -41.575)"><path d="M808.15 584.68l-55.263-197.52-71.772 39.918z" fill="url(#Bz)"/></g><g clip-path="url(#CA)" transform="matrix(1.0466 0 0 1.0466 -29.194 -32.126)"><path d="M808.15 584.68l-162.92-12.906 35.884-144.7z" fill="url(#CB)"/></g><g clip-path="url(#CC)" transform="matrix(1.068 0 0 1.068 -44.057 -32.484)"><path d="M752.88 387.16L731.35 277.4 681.1 427.1z" fill="url(#CD)"/></g><g clip-path="url(#CE)" transform="matrix(1.068 0 0 1.068 -38.933 -31.636)"><path d="M731.35 277.4l-179.43-24.95L681.1 427.08z" fill="url(#CF)"/></g><g clip-path="url(#CG)" transform="matrix(1.0257 0 0 1.0257 -12.927 -18.179)"><path d="M645.23 571.78L573.46 412.1l107.65 14.97z" fill="url(#CH)"/></g><g clip-path="url(#CI)" transform="matrix(1.068 0 0 1.068 -19.777 -25.189)"><path d="M404.8 332.27l-3.588-174.64-86.124 64.865z" fill="url(#CJ)"/></g><g clip-path="url(#CK)" transform="matrix(1.068 0 0 1.068 -19.533 -28.412)"><path d="M404.8 332.27l-96.9 29.938 7.178-139.7z" fill="url(#CL)"/></g><g clip-path="url(#CM)" transform="matrix(1.068 0 0 1.068 -18.679 -16.198)"><path d="M401.2 157.64L286.38 2.96l28.7 219.54z" fill="url(#CN)"/></g><g clip-path="url(#CO)" transform="matrix(1.0762 0 0 1.0198 -17.547 -10.515)"><path d="M307.9 362.2l-39.462-134.7 46.65-5z" fill="url(#CP)"/></g><g clip-path="url(#CQ)" transform="matrix(1.068 0 0 1.068 -15.141 -16.367)"><path d="M286.38 2.96L268.44 227.5l46.65-5z" fill="url(#CR)"/></g><g clip-path="url(#CS)" transform="matrix(1.068 0 0 1.068 -31.49 -31.127)"><path d="M573.46 412.1l-21.53-159.67-61.005 34.928z" fill="url(#CT)"/></g><g clip-path="url(#CU)" transform="matrix(1.068 0 0 1.068 -31.49 -33.671)"><path d="M573.46 412.1l-25.12 39.915-57.416-164.66z" fill="url(#CV)"/></g><g clip-path="url(#CW)" transform="matrix(1.068 0 0 1.068 -30.758 -24.341)"><path d="M551.93 252.44l-25.12-74.843-35.885 109.77z" fill="url(#CX)"/></g><g clip-path="url(#CY)" transform="matrix(1.068 0 0 1.068 -27.708 -33.671)"><path d="M548.34 452.02L404.8 332.27l86.125-44.906z" fill="url(#CZ)"/></g><g clip-path="url(#Ca)" transform="matrix(1.068 0 0 1.068 -26.854 -23.662)"><path d="M526.8 177.6l-125.6-19.96 89.713 129.73z" fill="url(#Cb)"/></g><g clip-path="url(#Cc)" transform="matrix(1.068 0 0 1.068 -25.634 -25.189)"><path d="M404.8 332.27l-3.588-174.64 89.713 129.73z" fill="url(#Cd)"/></g></g></svg>