<?xml version="1.0" encoding="UTF-8" standalone="no"?>
<!-- Created with Inkscape (http://www.inkscape.org/) -->

<svg
   xmlns:dc="http://purl.org/dc/elements/1.1/"
   xmlns:cc="http://creativecommons.org/ns#"
   xmlns:rdf="http://www.w3.org/1999/02/22-rdf-syntax-ns#"
   xmlns:svg="http://www.w3.org/2000/svg"
   xmlns="http://www.w3.org/2000/svg"
   xmlns:sodipodi="http://sodipodi.sourceforge.net/DTD/sodipodi-0.dtd"
   xmlns:inkscape="http://www.inkscape.org/namespaces/inkscape"
   width="141mm"
   height="130mm"
   viewBox="0 0 141 130"
   version="1.1"
   id="svg8"
   inkscape:version="0.92.3 (2405546, 2018-03-11)"
   sodipodi:docname="vector_head.svg">
  <defs
     id="defs2" />
  <sodipodi:namedview
     id="base"
     pagecolor="#ffffff"
     bordercolor="#666666"
     borderopacity="1.0"
     inkscape:pageopacity="0.0"
     inkscape:pageshadow="2"
     inkscape:zoom="2.8284271"
     inkscape:cx="359.81849"
     inkscape:cy="222.21217"
     inkscape:document-units="mm"
     inkscape:current-layer="layer1"
     showgrid="false"
     inkscape:window-width="1366"
     inkscape:window-height="711"
     inkscape:window-x="0"
     inkscape:window-y="0"
     inkscape:window-maximized="1" />
  <metadata
     id="metadata5">
    <rdf:RDF>
      <cc:Work
         rdf:about="">
        <dc:format>image/svg+xml</dc:format>
        <dc:type
           rdf:resource="http://purl.org/dc/dcmitype/StillImage" />
        <dc:title />
      </cc:Work>
    </rdf:RDF>
  </metadata>
  <g
     inkscape:label="Layer 1"
     inkscape:groupmode="layer"
     id="layer1"
     transform="translate(0,-167)">
    <path
       style="fill:#ffffff;stroke-width:0.35277775"
       d="m 34.080853,297.03794 -33.95485955,-0.0917 v -3.53475 c 0,-3.48103 0.0139,-3.54003 0.91621015,-3.88308 0.50391,-0.19159 2.2308704,-1.51802 3.8376804,-2.94762 1.606812,-1.4296 3.88038,-3.25046 5.052371,-4.04634 2.060514,-1.39927 2.919804,-1.70113 7.175416,-2.52062 2.203956,-0.4244 2.573763,-0.74232 4.026833,-3.4618 1.192123,-2.23111 1.546496,-2.44715 5.435674,-3.31374 1.647274,-0.36705 3.693896,-0.9765 4.548051,-1.35433 0.854154,-0.37783 2.236824,-0.68697 3.0726,-0.68697 1.756123,0 5.634068,0.77241 7.871879,1.56792 0.849012,0.30181 2.621078,0.54875 3.937924,0.54875 2.012078,0 2.748064,-0.18315 4.610664,-1.14736 1.457148,-0.75432 2.45171,-1.55027 2.903332,-2.32356 l 0.686936,-1.1762 -0.975984,-2.04199 c -0.703859,-1.47264 -0.923713,-2.37399 -0.788515,-3.23269 0.628368,-3.99104 1.095121,-6.30035 1.526501,-7.55249 0.953244,-2.76697 0.574128,-3.63889 -2.338038,-5.37718 -1.522328,-0.90869 -2.656946,-2.1143 -2.973955,-3.16002 -0.334821,-1.10448 1.164526,-2.56351 2.634354,-2.56351 0.603655,0 1.406641,-0.16541 1.784406,-0.36759 0.568759,-0.30439 0.619164,-0.49406 0.293165,-1.1032 -0.550982,-1.02952 0.153095,-1.39374 2.186462,-1.13107 2.87987,0.37202 6.66492,-1.92937 6.66492,-4.0524 0,-0.57392 -0.47612,-2.04994 -1.05805,-3.28004 -1.29544,-2.73832 -1.30942,-3.29116 -0.12719,-5.03097 0.89694,-1.31996 0.92314,-1.49724 0.70752,-4.78751 -0.18357,-2.80114 -0.0976,-3.88788 0.47714,-6.03131 2.68899,-10.02824 2.64317,-9.76572 2.67277,-15.31452 0.0155,-2.91041 0.0556,-5.472 0.0891,-5.69242 0.0906,-0.59608 3.57972,-4.11024 5.00276,-5.03863 1.31448,-0.85757 4.09462,-4.32275 5.11765,-6.37868 1.64776,-3.31137 5.21739,-6.30883 12.177,-10.22514 1.20152,-0.67612 3.00805,-1.94991 4.01451,-2.83064 1.00646,-0.88073 2.45703,-1.79215 3.223481,-2.02537 1.96703,-0.59853 5.668659,-1.51884 7.730019,-1.92185 0.9627,-0.18821 2.15879,-0.55341 2.65798,-0.81156 0.68803,-0.35579 3.29456,-0.47564 10.77326,-0.49535 9.33867,-0.0246 10.02579,0.0186 12.86424,0.80889 4.06147,1.13083 7.62302,3.11865 10.39266,5.80048 l 2.07141,2.19618 2.8e-4,119.97613 c -0.24171,0.0365 -14.93259,0.0871 -19.29597,-0.0261 l -1.01079,-0.0262 0.22158,-2.02848 c 0.12187,-1.11565 0.40479,-3.24585 0.62871,-4.73377 0.35682,-2.37098 0.33055,-2.90584 -0.21256,-4.32796 -0.80552,-2.10924 -1.40319,-2.66813 -2.85323,-2.66813 -0.88267,0 -1.61474,-0.36928 -2.84791,-1.43658 -1.16195,-1.00566 -1.88267,-1.38363 -2.40271,-1.26004 -0.40857,0.0971 -1.49692,0.28534 -2.41855,0.41831 -2.03308,0.29332 -2.1294,-0.0459 -0.57154,-2.01288 1.03618,-1.30828 1.12106,-1.64033 1.37861,-5.39309 0.15095,-2.19944 0.44783,-4.32293 0.65973,-4.71888 0.55992,-1.04621 0.50333,-4.29406 -0.0748,-4.29406 -0.25305,0 -1.24524,0.50052 -2.20486,1.11227 -3.06295,1.95259 -4.33216,2.34213 -8.44754,2.59269 -5.281159,0.32153 -9.26233,-0.22571 -12.94814,-1.7798 -2.38943,-1.00749 -3.47746,-1.75093 -5.92547,-4.04882 -1.64923,-1.5481 -3.12489,-2.81484 -3.27923,-2.81497 -0.81051,-7.1e-4 -1.97557,1.83922 -2.36745,3.73885 -0.79655,3.86124 -1.38736,5.22143 -3.02746,6.96991 l -1.60698,1.71319 -1.8815,-0.23508 c -1.67309,-0.20904 -1.96796,-0.14481 -2.66202,0.57987 -1.18174,1.23386 -1.75591,2.87646 -1.75591,5.02329 0,2.31382 1.14634,7.45327 2.16397,9.70188 1.38288,3.05565 2.42214,6.50213 2.42214,8.03252 0,1.32252 -0.12498,1.58196 -0.90491,1.87849 -0.4977,0.18922 -1.09301,0.30516 -1.32292,0.25764 -0.2299,-0.0475 -15.697694,-0.1277 -34.372867,-0.17816 z M 64.97599,263.819 c 0.14163,-0.95189 -0.50864,-1.79427 -1.38506,-1.79427 -0.81035,0 -1.82045,1.46741 -1.5304,2.22326 0.45956,1.19762 2.723,0.86457 2.91546,-0.42899 z m 39.45794,-6.2585 c 1.53221,-0.79915 2.72724,-1.12596 4.70039,-1.28543 2.45756,-0.19862 2.72115,-0.30016 3.70417,-1.42696 2.09802,-2.40488 3.66705,-3.50803 5.0443,-3.54657 l 1.3057,-0.0365 v -1.64995 c 0,-1.30399 0.19746,-1.85875 0.94175,-2.64583 0.51796,-0.54774 1.34624,-1.91679 1.84062,-3.04234 0.49438,-1.12555 1.21175,-2.44422 1.59417,-2.93038 0.38241,-0.48616 0.96005,-1.68103 1.28364,-2.65526 0.54736,-1.64797 0.54783,-1.87745 0.007,-3.29454 -0.39108,-1.02405 -1.03036,-1.82009 -1.95082,-2.42922 -0.75301,-0.49832 -1.86918,-1.52831 -2.48037,-2.28886 -0.85917,-1.06912 -1.62725,-1.55221 -3.38572,-2.12947 -2.69775,-0.88561 -3.4359,-0.92551 -4.02351,-0.21748 -0.30679,0.36965 -1.12079,0.52916 -2.70036,0.52916 -2.71854,0 -4.43641,0.65103 -5.27483,1.99901 -1.77805,2.85868 -2.72818,3.17429 -4.60232,1.52877 -1.373249,-1.20572 -3.039809,-1.39213 -4.712569,-0.52711 -2.191421,1.13322 -2.236601,5.69753 -0.0743,7.502 1.48671,1.24066 2.49851,1.35938 4.03734,0.47374 0.742389,-0.42726 1.519669,-0.67185 1.727299,-0.54353 0.20763,0.12832 0.84126,1.26694 1.40808,2.53026 1.15673,2.57814 0.98741,3.26464 -0.8052,3.26464 -1.15693,0 -3.114279,-0.89259 -3.114279,-1.42017 0,-0.5447 -1.98434,-0.39907 -2.46572,0.18096 -0.63837,0.76918 -0.18332,1.55295 1.24913,2.15147 1.48815,0.62178 1.52772,1.54513 0.0879,2.05147 -1.06011,0.37282 -5.371861,-0.23871 -7.194371,-1.02037 -1.13356,-0.48617 -2.26031,-2.32301 -2.26031,-3.68478 0,-1.00428 -1.00471,-2.49191 -1.68297,-2.49191 -0.29892,0 -1.06382,0.39687 -1.69978,0.88194 -0.63596,0.48507 -1.62684,0.88195 -2.20195,0.88195 -1.00948,0 -1.0593,0.0783 -1.44005,2.2648 -0.33119,1.90183 -0.302,2.53788 0.18214,3.96875 0.902,2.66584 3.09837,5.53094 5.05733,6.59714 2.23596,1.21697 2.96168,1.17279 5.39365,-0.3283 1.11913,-0.69077 2.211811,-1.14653 2.428181,-1.01281 0.21637,0.13372 0.69479,0.9245 1.06318,1.75728 0.36837,0.83278 1.17623,1.9403 1.79524,2.46116 0.99769,0.8395 1.35469,0.93043 3.144709,0.80095 1.34402,-0.0972 2.7063,-0.5044 4.07381,-1.21765 z m -3.4135,-9.46377 c 0,-0.64406 1.67919,-1.11448 2.18232,-0.61135 0.56971,0.56971 1.5e-4,1.13379 -1.1448,1.13379 -0.68112,0 -1.03752,-0.17946 -1.03752,-0.52244 z M 85.74415,237.77251 c 0.96386,-0.77251 0.97152,-0.80587 0.304,-1.32292 -1.06158,-0.82227 -3.55252,-0.68598 -4.41675,0.24166 -0.78982,0.84778 -0.95524,2.71401 -0.34211,3.85965 0.36051,0.67362 0.44552,0.64528 1.92164,-0.64055 0.84944,-0.73994 1.98939,-1.70196 2.53322,-2.13784 z"
       id="path3758"
       inkscape:connector-curvature="0"
       sodipodi:nodetypes="ccscsccscsscssccssccssccssccccccccssccccccccccccssscccccscccccsccscscscccccscccssccscscccccccssccccscssccccssssccccscccccsssscccccc" />
  </g>
</svg>
