<?xml version="1.0" encoding="UTF-8" standalone="no"?>
<!-- Created with Inkscape (http://www.inkscape.org/) -->

<svg
   xmlns:dc="http://purl.org/dc/elements/1.1/"
   xmlns:cc="http://creativecommons.org/ns#"
   xmlns:rdf="http://www.w3.org/1999/02/22-rdf-syntax-ns#"
   xmlns:svg="http://www.w3.org/2000/svg"
   xmlns="http://www.w3.org/2000/svg"
   xmlns:sodipodi="http://sodipodi.sourceforge.net/DTD/sodipodi-0.dtd"
   xmlns:inkscape="http://www.inkscape.org/namespaces/inkscape"
   width="141mm"
   height="130mm"
   viewBox="0 0 141 130"
   version="1.1"
   id="svg8"
   inkscape:version="0.92.3 (2405546, 2018-03-11)"
   sodipodi:docname="vector_head_transp.svg">
  <defs
     id="defs2" />
  <sodipodi:namedview
     id="base"
     pagecolor="#ffffff"
     bordercolor="#666666"
     borderopacity="1.0"
     inkscape:pageopacity="0.0"
     inkscape:pageshadow="2"
     inkscape:zoom="0.99999999"
     inkscape:cx="253.53105"
     inkscape:cy="229.82142"
     inkscape:document-units="mm"
     inkscape:current-layer="layer1"
     showgrid="false"
     inkscape:window-width="1366"
     inkscape:window-height="711"
     inkscape:window-x="0"
     inkscape:window-y="0"
     inkscape:window-maximized="1" />
  <metadata
     id="metadata5">
    <rdf:RDF>
      <cc:Work
         rdf:about="">
        <dc:format>image/svg+xml</dc:format>
        <dc:type
           rdf:resource="http://purl.org/dc/dcmitype/StillImage" />
        <dc:title></dc:title>
      </cc:Work>
    </rdf:RDF>
  </metadata>
  <g
     inkscape:label="Layer 1"
     inkscape:groupmode="layer"
     id="layer1"
     transform="translate(0,-167)">
    <path
       style="fill:#ffffff;fill-opacity:0.3137255;stroke-width:0.35277775"
       d="M 34.080853,297.03794 C 22.762567,297.00734 11.44428,296.97684 0.12599345,296.94624 -1.5808747,287.63929 8.6857318,282.95164 15.8,280.22666 c 6.811784,-4.25142 13.661503,-11.35192 22.490105,-8.20801 5.960926,2.53038 18.999671,1.32007 14.298352,-7.52725 0.988877,-5.79172 2.822942,-12.33536 -2.935265,-16.21298 -1.099414,-7.1982 12.014305,-4.27866 12.510958,-11.31655 -2.919596,-8.15968 0.649787,-17.19946 1.975296,-25.54275 0.06315,-7.93645 1.2354,-17.05089 8.491707,-21.6437 5.978096,-8.97572 15.325405,-15.17686 25.117461,-19.25841 9.947526,-2.85271 20.680246,-3.1569 30.852676,-1.37272 4.92726,1.33562 10.94971,3.96468 12.36497,9.32156 0.0798,39.48566 0.013,79.02826 0.0351,118.53624 -6.03357,-1.21547 -16.74677,2.71937 -19.86783,-2.17336 2.95868,-7.33062 -2.75493,-15.29983 -10.67832,-14.28544 -1.4956,-3.511 5.6751,-13.19066 -0.41687,-14.94806 -8.04724,4.32413 -19.231851,3.85935 -26.237617,-2.37677 -4.190677,-6.43746 -8.485905,1.51485 -8.758535,5.88703 -4.724833,3.18251 -12.097343,5.78497 -8.520643,13.02451 2.474519,4.91064 7.730796,16.58302 -2.429296,15.27158 -9.991271,-0.67775 -20.009687,-0.13196 -30.011446,-0.36364 z M 64.97599,263.819 c -2.261392,-5.50306 -3.376409,4.41179 0,0 z m 39.45794,-6.2585 c 7.02491,-1.28842 14.75365,-5.16428 16.82334,-12.51286 6.23516,-5.99914 3.2488,-15.74597 -5.37537,-16.98729 -7.52013,-1.64106 -12.65156,6.17878 -20.005386,3.48198 -5.100128,5.04854 1.228505,9.03346 6.284456,8.93496 2.77593,4.51182 -3.058239,3.97831 -5.675912,3.36373 4.708582,7.72336 -9.551046,2.92794 -9.585065,-2.20272 -8.113073,-2.38106 -6.795675,13.13286 0.241209,13.93328 4.043546,-0.46506 9.263013,-2.46707 10.666007,2.83827 2.167361,1.03161 4.605201,0.0573 6.626721,-0.84935 z m -3.4135,-9.46377 c 2.29113,-3.34206 3.57077,2.72137 0,0 z M 85.74415,237.77251 c -0.624887,-6.35607 -9.121104,5.52973 -2.168827,1.84036 0.712795,-0.62501 1.404304,-1.27704 2.168827,-1.84036 z"
       id="path3758"
       inkscape:connector-curvature="0" />
  </g>
</svg>
